{"glyphs":{"0":{"ha":803,"x_min":40,"x_max":763,"o":"m 763 346 q 667 80 763 176 q 401 -17 571 -17 q 136 80 232 -17 q 40 346 40 176 q 134 614 40 519 q 401 708 228 708 q 668 614 574 708 q 763 346 763 519 m 579 346 q 401 596 579 596 q 222 346 222 596 q 226 271 222 304 q 241 203 229 238 q 272 147 253 169 q 324 110 290 125 q 401 96 357 96 q 494 116 457 96 q 549 174 532 136 q 573 252 567 213 q 579 346 579 292 z "},"1":{"ha":532,"x_min":21,"x_max":514,"o":"m 514 0 l 50 0 l 50 138 l 201 138 l 201 525 l 50 485 l 21 574 l 261 692 l 369 692 l 369 138 l 514 138 l 514 0 z "},"2":{"ha":646,"x_min":40,"x_max":643,"o":"m 643 138 l 614 0 l 40 0 l 40 75 q 203 256 97 135 q 342 413 310 378 q 388 507 388 461 q 364 564 388 543 q 304 585 340 585 q 129 493 224 585 l 46 582 q 351 711 189 711 q 517 662 447 711 q 588 521 588 613 q 511 356 588 435 q 281 138 475 318 l 643 138 z "},"3":{"ha":569,"x_min":-107,"x_max":535,"o":"m 535 122 q 495 -31 535 39 q 392 -144 456 -100 q 249 -219 329 -189 q 89 -262 168 -249 q -67 -275 10 -275 l -87 -275 l -107 -178 q 7 -169 -49 -176 q 125 -141 63 -161 q 233 -91 188 -121 q 310 -11 279 -61 q 340 103 340 39 q 240 206 340 206 q 143 186 194 206 l 94 286 q 240 392 172 322 q 308 536 308 463 q 257 594 308 594 q 119 526 190 594 l 42 604 q 159 682 85 654 q 304 710 233 710 q 444 674 386 710 q 501 563 501 639 q 431 421 501 489 q 275 310 360 353 q 318 313 303 313 q 475 265 415 313 q 535 122 535 217 z "},"4":{"ha":690,"x_min":3,"x_max":731,"o":"m 731 138 l 692 -1 l 582 -1 l 582 -256 l 408 -256 l 408 -1 l 3 -1 l 3 79 l 400 692 l 582 692 l 582 138 l 731 138 m 408 138 l 408 457 l 201 138 l 408 138 z "},"5":{"ha":517,"x_min":-39,"x_max":551,"o":"m 551 692 l 503 524 l 242 524 l 211 454 q 456 114 456 318 q 413 -46 456 28 q 302 -168 371 -119 q 154 -247 233 -217 q -8 -287 75 -276 l -39 -201 q 182 -87 92 -162 q 272 107 272 -11 q 195 265 272 190 q 25 379 118 339 l 167 692 l 551 692 z "},"6":{"ha":744,"x_min":33,"x_max":711,"o":"m 711 294 q 613 72 711 161 q 381 -17 515 -17 q 129 83 225 -17 q 33 339 33 182 q 150 683 33 532 q 456 933 267 833 q 651 1014 563 992 l 690 924 q 435 769 556 878 q 254 533 315 661 q 415 585 335 585 q 628 504 544 585 q 711 294 711 424 m 379 465 q 226 392 293 465 q 221 322 221 367 q 260 168 221 238 q 378 99 299 99 q 487 155 450 99 q 524 286 524 211 q 487 413 524 361 q 379 465 450 465 z "},"7":{"ha":590,"x_min":-15,"x_max":594,"o":"m 594 603 l 199 -262 l 10 -262 l 385 536 l -15 536 l 29 690 l 594 690 l 594 603 z "},"8":{"ha":640,"x_min":39,"x_max":644,"o":"m 644 236 q 554 49 644 114 q 338 -17 464 -17 q 127 51 215 -17 q 39 236 39 118 q 42 292 39 267 q 60 342 46 317 q 80 381 74 367 q 112 419 86 394 q 144 451 138 444 q 185 486 150 457 q 224 519 219 515 l 207 535 q 149 590 168 571 q 108 640 131 608 q 78 706 86 671 q 69 785 69 740 q 153 954 69 892 q 347 1017 236 1017 q 536 956 461 1017 q 611 785 611 896 q 604 728 611 754 q 590 684 597 701 q 564 643 583 667 q 535 610 544 619 q 497 574 525 600 q 458 539 468 547 l 481 518 q 544 456 524 478 q 593 398 565 435 q 633 322 621 361 q 644 236 644 283 m 456 783 q 431 871 456 835 q 356 907 406 907 q 283 872 308 907 q 257 788 257 838 q 263 754 257 771 q 272 727 268 738 q 292 699 276 717 q 311 678 307 682 q 336 654 315 674 q 358 633 357 635 l 364 639 q 410 680 396 665 q 440 723 425 694 q 456 783 456 751 m 457 238 q 449 281 457 260 q 423 324 442 301 q 393 359 404 347 q 355 395 382 371 q 322 425 328 419 q 293 400 317 419 q 261 374 269 381 q 236 348 253 367 q 213 316 219 329 q 199 282 206 303 q 193 240 193 261 q 230 137 193 178 q 329 96 267 96 q 424 135 390 96 q 457 238 457 175 z "},"9":{"ha":744,"x_min":35,"x_max":711,"o":"m 711 354 q 657 121 711 232 q 513 -72 603 10 q 313 -210 422 -153 q 86 -297 203 -268 l 49 -207 q 309 -62 189 -160 q 490 160 429 35 q 329 108 410 108 q 117 189 200 108 q 35 399 35 269 q 133 621 35 532 q 365 710 231 710 q 616 610 521 710 q 711 354 711 511 m 524 371 q 485 526 524 457 q 367 594 446 594 q 258 538 294 594 q 221 407 221 482 q 258 281 221 333 q 367 228 296 228 q 519 301 453 228 q 524 371 524 338 z "},"\u0000":{"ha":0,"x_min":0,"x_max":0,"o":""},"\r":{"ha":319,"x_min":0,"x_max":0,"o":""}," ":{"ha":319,"x_min":0,"x_max":0,"o":""},"$":{"ha":597,"x_min":44,"x_max":546,"o":"m 546 215 q 476 54 546 117 q 306 -18 407 -8 l 292 -174 l 190 -174 l 235 -17 q 44 40 129 -7 l 104 154 q 261 99 199 99 q 335 122 306 99 q 365 188 365 144 q 334 249 365 225 q 258 290 303 274 q 169 325 214 306 q 92 387 124 344 q 61 492 61 429 q 133 647 61 590 q 308 708 206 703 l 322 867 l 422 867 l 379 706 q 532 665 472 694 l 474 549 q 336 596 413 596 q 269 577 297 596 q 242 522 242 558 q 273 465 242 488 q 349 427 304 443 q 439 390 394 411 q 515 326 483 369 q 546 215 546 282 z "},"%":{"ha":1199,"x_min":46,"x_max":1169,"o":"m 1107 483 q 1169 279 1169 404 q 1108 74 1169 154 q 924 -6 1046 -6 q 740 74 801 -6 q 678 279 678 154 q 740 483 678 404 q 924 563 801 563 q 1107 483 1046 563 m 889 971 l 408 -17 l 315 -17 l 763 896 l 486 896 q 538 707 538 819 q 475 502 538 582 q 292 422 413 422 q 108 502 169 422 q 46 707 46 582 q 108 911 46 832 q 292 990 169 990 q 394 971 350 990 l 889 971 m 1018 279 q 924 453 1018 453 q 829 279 829 453 q 924 104 829 104 q 1018 279 1018 104 m 386 707 q 292 881 386 881 q 197 707 197 881 q 292 532 197 532 q 386 707 386 532 z "},"&":{"ha":943,"x_min":43,"x_max":943,"o":"m 943 0 l 840 0 q 722 26 771 0 q 615 110 674 53 q 340 -17 493 -17 q 128 58 214 -17 q 43 257 43 132 q 224 539 43 421 q 149 728 149 642 q 220 892 149 826 q 392 958 292 958 q 552 908 488 958 q 617 764 617 857 q 573 641 617 694 q 456 536 529 588 q 622 346 474 517 q 667 529 667 442 l 775 503 q 710 247 775 375 l 718 238 q 803 158 778 171 q 906 146 828 146 l 943 146 l 943 0 m 469 758 q 447 822 469 797 q 386 847 425 847 q 322 821 349 847 q 294 757 294 794 q 367 628 294 700 q 469 758 469 693 m 519 207 l 308 438 q 206 283 206 364 q 249 181 206 218 q 358 143 293 143 q 519 207 444 143 z "},"'":{"ha":314,"x_min":88,"x_max":218,"o":"m 218 776 l 168 624 l 139 624 q 125 666 138 628 q 100 740 113 704 l 88 776 l 88 1017 l 218 1017 l 218 776 z "},"(":{"ha":425,"x_min":49,"x_max":446,"o":"m 446 -181 l 314 -203 q 49 414 49 90 q 314 1032 49 739 l 446 1010 q 270 727 325 865 q 215 414 215 589 q 271 101 215 239 q 446 -181 326 -37 z "},")":{"ha":425,"x_min":17,"x_max":414,"o":"m 414 414 q 149 -203 414 90 l 17 -181 q 192 101 136 -37 q 247 414 247 239 q 192 727 247 589 q 17 1010 138 865 l 149 1032 q 414 414 414 739 z "},"*":{"ha":708,"x_min":78,"x_max":636,"o":"m 636 771 l 417 733 l 576 586 l 453 490 l 354 686 l 256 494 l 136 583 l 290 738 l 78 767 l 119 915 l 314 813 l 274 1029 l 428 1029 l 393 813 l 579 921 l 636 771 z "},"+":{"ha":892,"x_min":93,"x_max":785,"o":"m 785 285 l 500 285 l 500 0 l 378 0 l 378 283 l 93 283 l 93 406 l 378 406 l 378 690 l 500 690 l 500 407 l 785 407 l 785 285 z "},",":{"ha":326,"x_min":46,"x_max":254,"o":"m 254 64 q 103 -186 254 -76 q 49 -129 65 -149 q 91 -78 69 -110 q 113 -28 113 -47 q 96 1 113 -14 q 63 40 79 17 q 46 96 46 63 q 74 165 46 136 q 142 193 101 193 q 224 155 193 193 q 254 64 254 117 z "},"-":{"ha":435,"x_min":68,"x_max":375,"o":"m 375 292 l 68 292 l 68 424 l 375 424 l 375 292 z "},".":{"ha":317,"x_min":40,"x_max":254,"o":"m 222 167 q 254 90 254 135 q 223 15 254 46 q 147 -17 192 -17 q 72 15 103 -17 q 40 90 40 46 q 72 167 40 135 q 147 199 103 199 q 222 167 192 199 z "},"/":{"ha":453,"x_min":-25,"x_max":479,"o":"m 479 1017 l 104 0 l -25 0 l 349 1017 l 479 1017 z "},":":{"ha":460,"x_min":124,"x_max":338,"o":"m 306 167 q 338 90 338 135 q 306 15 338 46 q 231 -17 275 -17 q 155 15 186 -17 q 124 90 124 46 q 155 167 124 135 q 231 199 186 199 q 306 167 275 199 m 306 568 q 338 492 338 536 q 306 416 338 447 q 231 385 275 385 q 155 416 186 385 q 124 492 124 447 q 155 568 124 536 q 231 600 186 600 q 306 568 275 600 z "},";":{"ha":464,"x_min":125,"x_max":339,"o":"m 307 568 q 339 492 339 536 q 308 416 339 447 q 232 385 276 385 q 156 416 188 385 q 125 492 125 447 q 156 568 125 536 q 232 600 188 600 q 307 568 276 600 m 338 64 q 186 -186 338 -76 q 132 -129 149 -149 q 174 -78 153 -110 q 196 -28 196 -47 q 179 1 196 -14 q 146 40 163 17 q 129 96 129 63 q 157 165 129 136 q 225 193 185 193 q 307 155 276 193 q 338 64 338 117 z "},"<":{"ha":875,"x_min":92,"x_max":783,"o":"m 783 -17 l 92 310 l 92 382 l 783 707 l 783 582 l 272 346 l 783 106 l 783 -17 z "},"=":{"ha":875,"x_min":96,"x_max":785,"o":"m 785 151 l 96 151 l 96 274 l 785 274 l 785 151 m 785 419 l 96 419 l 96 542 l 785 542 l 785 419 z "},">":{"ha":875,"x_min":92,"x_max":783,"o":"m 783 310 l 92 -17 l 92 106 l 603 346 l 92 582 l 92 707 l 783 382 l 783 310 z "},"?":{"ha":608,"x_min":28,"x_max":560,"o":"m 560 756 q 503 598 560 658 q 349 496 446 538 q 331 467 331 488 l 331 301 l 182 301 l 182 586 q 318 634 256 592 q 381 746 381 676 q 338 835 381 803 q 236 868 294 868 q 92 819 164 868 l 28 942 q 254 1003 122 1003 q 468 938 376 1003 q 560 756 560 874 m 331 167 q 363 90 363 135 q 331 15 363 46 q 256 -17 300 -17 q 180 15 211 -17 q 149 90 149 46 q 180 167 149 135 q 256 199 211 199 q 331 167 300 199 z "},"@":{"ha":1156,"x_min":63,"x_max":1093,"o":"m 626 -96 l 647 -169 q 510 -187 583 -187 q 189 -58 315 -187 q 63 267 63 72 q 103 482 63 376 q 214 673 143 588 q 394 811 285 758 q 631 864 503 864 q 960 747 826 864 q 1093 432 1093 631 q 1017 181 1093 292 q 821 71 942 71 q 671 149 714 71 q 597 90 642 111 q 513 69 553 69 q 380 132 425 69 q 335 286 335 194 q 414 506 335 400 q 619 611 493 611 q 739 560 693 611 l 763 601 l 828 601 q 775 225 775 272 q 826 149 775 149 q 954 235 904 149 q 1004 432 1004 322 q 897 692 1004 596 q 631 789 790 789 q 376 710 489 789 q 208 514 264 632 q 151 267 151 396 q 253 -4 151 104 q 510 -112 354 -112 q 626 -96 568 -112 m 696 485 q 611 525 654 525 q 526 479 563 525 q 476 381 490 433 q 461 286 461 329 q 536 157 461 157 q 601 185 574 157 q 647 268 629 214 q 676 370 665 322 q 696 485 686 418 z "},"A":{"ha":876,"x_min":3,"x_max":874,"o":"m 874 0 l 668 0 l 568 292 l 268 292 l 164 0 l 3 0 l 363 1017 l 514 1017 l 874 0 m 522 428 q 417 775 456 632 q 315 428 369 601 l 522 428 z "},"B":{"ha":853,"x_min":74,"x_max":814,"o":"m 814 282 q 758 117 814 183 q 624 26 703 51 q 449 0 544 0 l 93 0 l 93 932 q 88 953 93 933 q 78 993 83 972 q 74 1017 74 1014 l 435 1017 q 555 1006 500 1017 q 660 971 610 996 q 738 897 710 946 q 767 779 767 847 q 707 629 767 692 q 560 554 647 567 q 740 462 667 536 q 814 282 814 388 m 565 753 q 527 848 565 817 q 424 879 489 879 l 285 879 l 285 619 l 428 619 q 526 656 488 619 q 565 753 565 693 m 613 304 q 549 437 613 392 q 393 482 485 482 l 285 482 l 285 138 l 436 138 q 564 182 515 138 q 613 304 613 226 z "},"C":{"ha":867,"x_min":28,"x_max":850,"o":"m 850 86 q 687 8 763 32 q 514 -17 611 -17 q 153 131 279 -17 q 28 515 28 278 q 160 889 28 742 q 515 1036 292 1036 q 696 1011 601 1036 q 844 938 790 986 l 744 810 q 644 876 707 851 q 522 901 582 901 q 352 843 419 901 q 260 703 285 785 q 235 519 235 621 q 252 384 235 453 q 303 253 269 315 q 394 153 336 192 q 525 114 453 114 q 763 218 654 114 l 850 86 z "},"D":{"ha":971,"x_min":71,"x_max":944,"o":"m 944 507 q 801 132 944 274 q 454 0 669 0 l 93 0 l 93 932 q 83 973 93 933 q 71 1017 72 1013 l 456 1017 q 815 877 685 1017 q 944 507 944 738 m 739 501 q 711 683 739 601 q 615 822 683 765 q 443 879 546 879 l 285 879 l 285 138 l 446 138 q 581 167 522 138 q 672 249 639 197 q 722 365 706 301 q 739 501 739 428 z "},"E":{"ha":763,"x_min":72,"x_max":711,"o":"m 711 0 l 93 0 l 93 932 l 72 1017 l 711 1017 l 711 879 l 283 879 l 283 592 l 611 592 l 611 454 l 283 454 l 283 138 l 711 138 l 711 0 z "},"F":{"ha":708,"x_min":74,"x_max":669,"o":"m 669 879 l 286 879 l 286 592 l 582 592 l 582 454 l 286 454 l 286 0 l 93 0 l 93 932 q 88 953 93 933 q 78 993 83 972 q 74 1017 74 1014 l 669 1017 l 669 879 z "},"G":{"ha":982,"x_min":29,"x_max":928,"o":"m 928 -1 l 829 -1 l 782 104 q 643 13 713 40 q 479 -15 574 -15 q 146 130 263 -15 q 29 499 29 275 q 164 888 29 742 q 538 1033 299 1033 q 735 1006 632 1033 q 894 924 838 978 l 793 810 q 670 883 719 864 q 538 903 621 903 q 356 845 428 903 q 258 703 285 788 q 231 511 231 619 q 247 377 231 443 q 294 251 263 311 q 382 155 325 192 q 511 118 439 118 q 670 176 610 118 q 731 333 731 235 l 731 419 l 519 419 l 538 542 l 924 542 q 921 286 921 372 q 928 -1 921 118 z "},"H":{"ha":992,"x_min":74,"x_max":903,"o":"m 903 0 l 711 0 l 711 454 l 285 454 l 285 0 l 93 0 l 93 932 q 88 953 93 933 q 78 993 83 972 q 74 1017 74 1014 l 285 1017 l 285 592 l 711 592 l 711 1017 l 903 1017 l 903 0 z "},"I":{"ha":372,"x_min":72,"x_max":283,"o":"m 283 0 l 92 0 l 92 932 q 87 953 92 933 q 77 993 82 972 q 72 1017 72 1014 l 283 1017 l 283 0 z "},"J":{"ha":372,"x_min":-53,"x_max":285,"o":"m 285 136 q 279 3 285 58 q 255 -110 274 -53 q 203 -203 236 -167 q 113 -262 169 -239 q -25 -290 56 -286 l -53 -182 q 26 -153 -4 -176 q 71 -92 57 -131 q 89 -19 85 -54 q 93 65 93 15 l 93 932 q 88 953 93 933 q 78 993 83 972 q 74 1017 74 1014 l 285 1017 l 285 136 z "},"K":{"ha":811,"x_min":72,"x_max":829,"o":"m 829 0 l 607 0 l 283 515 l 283 0 l 92 0 l 92 932 q 87 953 92 933 q 77 993 82 972 q 72 1017 72 1014 l 283 1017 l 283 563 l 622 1017 l 800 1017 l 469 572 l 829 0 z "},"L":{"ha":714,"x_min":74,"x_max":683,"o":"m 683 0 l 92 0 l 92 932 q 88 953 92 933 q 78 993 83 972 q 74 1017 74 1014 l 285 1017 l 285 138 l 683 138 l 683 0 z "},"M":{"ha":1164,"x_min":74,"x_max":1092,"o":"m 1092 1 l 904 1 l 904 690 q 911 790 904 710 q 901 759 907 779 q 889 722 894 739 q 878 690 883 706 l 629 0 l 526 0 l 271 690 q 260 722 265 706 q 248 759 254 739 q 238 790 242 779 q 241 743 238 778 q 244 690 244 708 l 244 1 l 93 1 l 93 932 q 88 953 93 933 q 78 993 83 972 q 74 1017 74 1014 l 340 1017 l 557 433 q 597 265 572 392 q 612 335 600 275 q 635 428 624 396 l 847 1017 l 1092 1017 l 1092 1 z "},"N":{"ha":992,"x_min":72,"x_max":903,"o":"m 903 -7 l 753 -7 l 296 690 q 238 783 249 764 q 246 690 246 692 l 246 0 l 92 0 l 92 931 q 87 951 92 932 q 77 992 82 971 q 72 1015 72 1013 l 300 1015 l 700 407 q 757 315 721 376 q 749 422 749 419 l 749 1015 l 903 1015 l 903 -7 z "},"O":{"ha":1024,"x_min":26,"x_max":997,"o":"m 997 507 q 865 131 997 278 q 507 -15 733 -15 q 153 133 281 -15 q 26 510 26 281 q 154 886 26 740 q 508 1032 282 1032 q 869 887 740 1032 q 997 507 997 742 m 792 501 q 778 641 792 575 q 733 767 764 707 q 645 864 703 828 q 510 900 588 900 q 376 866 433 900 q 289 774 319 832 q 244 652 258 717 q 231 515 231 588 q 244 376 231 442 q 289 249 258 310 q 377 153 319 189 q 513 117 435 117 q 646 151 589 117 q 733 242 703 185 q 778 365 764 300 q 792 501 792 429 z "},"P":{"ha":799,"x_min":71,"x_max":763,"o":"m 763 713 q 656 485 763 563 q 396 408 550 408 l 282 408 l 282 0 l 92 0 l 92 932 q 82 973 92 935 q 71 1017 72 1011 l 393 1017 q 661 945 560 1017 q 763 713 763 874 m 560 713 q 519 835 560 790 q 401 879 479 879 l 283 879 l 283 543 l 400 543 q 517 590 475 543 q 560 713 560 636 z "},"Q":{"ha":1024,"x_min":26,"x_max":1644,"o":"m 1644 -226 q 1450 -287 1507 -274 q 1299 -300 1393 -300 q 1168 -285 1239 -300 q 1012 -237 1097 -269 q 871 -182 926 -206 q 718 -114 815 -158 q 596 -58 621 -69 q 418 -11 554 -40 q 122 171 217 32 q 26 506 26 310 q 57 703 26 610 q 146 872 88 797 q 299 990 204 946 q 513 1033 393 1033 q 726 990 632 1033 q 879 872 821 946 q 967 703 938 797 q 997 506 997 610 q 936 234 997 360 q 744 38 875 108 l 761 29 q 947 -58 874 -25 q 1146 -131 1021 -92 q 1356 -169 1271 -169 q 1613 -121 1450 -169 l 1644 -226 m 793 506 q 767 694 793 608 q 675 840 740 779 q 513 900 610 900 q 351 840 417 900 q 258 693 285 779 q 232 504 232 607 q 258 319 232 403 q 351 176 285 235 q 513 118 417 118 q 724 231 654 118 q 793 506 793 344 z "},"R":{"ha":821,"x_min":71,"x_max":857,"o":"m 857 0 l 640 0 l 358 453 l 282 453 l 282 0 l 92 0 l 92 932 q 82 973 92 935 q 71 1017 72 1011 l 419 1017 q 668 951 574 1017 q 763 739 763 886 q 697 578 763 653 q 546 482 632 503 l 857 0 m 561 740 q 515 842 561 806 q 401 878 469 878 l 282 878 l 282 589 l 371 589 q 561 740 561 589 z "},"S":{"ha":717,"x_min":6,"x_max":689,"o":"m 689 299 q 585 67 689 151 q 332 -17 482 -17 q 6 64 142 -17 l 71 218 q 314 117 179 117 q 435 156 385 117 q 486 264 486 194 q 453 353 486 314 q 370 414 419 392 q 263 466 321 436 q 155 526 204 496 q 72 613 106 557 q 39 743 39 669 q 138 960 39 886 q 403 1033 238 1033 q 547 1008 465 1033 q 672 950 629 983 l 576 831 q 385 900 499 900 q 284 869 326 900 q 242 783 242 839 q 275 698 242 735 q 358 639 308 661 q 465 586 407 617 q 573 524 524 556 q 656 435 622 493 q 689 299 689 376 z "},"T":{"ha":803,"x_min":18,"x_max":785,"o":"m 785 879 l 499 879 l 499 0 l 300 0 l 300 879 l 18 879 l 18 1017 l 785 1017 l 785 879 z "},"U":{"ha":982,"x_min":72,"x_max":894,"o":"m 894 386 q 785 82 894 179 q 494 -15 676 -15 q 198 88 301 -15 q 94 386 94 192 l 94 933 l 72 1017 l 290 1017 l 290 340 q 351 178 290 239 q 514 117 413 117 q 677 176 617 117 q 738 340 738 236 l 738 1017 l 894 1017 l 894 386 z "},"V":{"ha":838,"x_min":0,"x_max":838,"o":"m 838 1015 l 486 -3 l 350 -3 l 0 1015 l 203 1015 q 401 435 392 465 q 442 276 421 374 q 496 467 461 371 l 683 1015 l 838 1015 z "},"W":{"ha":1242,"x_min":-19,"x_max":1261,"o":"m 1261 1017 l 979 -3 l 807 -3 q 756 176 792 50 q 696 395 721 301 q 650 575 671 489 q 622 731 631 658 q 575 501 604 608 l 438 -3 l 260 -3 l -19 1017 l 172 1017 q 333 429 318 489 q 365 253 351 354 q 414 481 378 343 l 560 1017 l 721 1017 q 773 833 738 956 q 835 612 808 710 q 883 426 861 514 q 913 253 900 358 q 960 481 929 372 l 1107 1017 l 1261 1017 z "},"X":{"ha":813,"x_min":-17,"x_max":829,"o":"m 829 0 l 607 0 l 392 369 l 163 0 l -17 0 l 301 515 l 3 1017 l 224 1017 l 414 699 l 611 1017 l 790 1017 l 503 547 l 829 0 z "},"Y":{"ha":811,"x_min":14,"x_max":797,"o":"m 797 1017 l 496 463 l 496 0 l 311 0 l 311 463 l 14 1017 l 219 1017 l 422 639 l 631 1017 l 797 1017 z "},"Z":{"ha":793,"x_min":18,"x_max":775,"o":"m 775 138 l 758 0 l 18 0 l 18 114 l 506 881 l 51 881 l 51 1017 l 750 1017 l 750 915 l 253 138 l 775 138 z "},"[":{"ha":488,"x_min":129,"x_max":432,"o":"m 432 -183 l 129 -183 l 129 1017 l 432 1017 l 432 935 l 294 935 l 294 -101 l 432 -101 l 432 -183 z "},"\\":{"ha":453,"x_min":-25,"x_max":479,"o":"m 479 0 l 349 0 l -25 1017 l 104 1017 l 479 0 z "},"]":{"ha":486,"x_min":56,"x_max":358,"o":"m 358 -183 l 56 -183 l 56 -101 l 193 -101 l 193 935 l 56 935 l 56 1017 l 358 1017 l 358 -183 z "},"^":{"ha":858,"x_min":96,"x_max":821,"o":"m 821 0 l 694 0 l 458 511 l 218 0 l 96 0 l 422 692 l 494 692 l 821 0 z "},"_":{"ha":693,"x_min":-6,"x_max":700,"o":"m 700 -199 l -6 -199 l -6 -65 l 700 -65 l 700 -199 z "},"`":{"ha":390,"x_min":6,"x_max":358,"o":"m 358 819 l 215 819 l 6 1049 l 207 1049 l 358 819 z "},"a":{"ha":686,"x_min":42,"x_max":717,"o":"m 717 26 q 678 15 704 24 q 636 2 653 7 q 597 -7 619 -3 q 556 -11 574 -11 q 485 15 514 -11 q 446 82 456 40 q 238 -15 376 -15 q 97 32 153 -15 q 42 163 42 79 q 76 285 42 235 q 171 359 111 335 q 290 394 231 383 q 418 404 350 404 l 418 494 q 394 570 418 549 q 318 592 371 592 q 140 511 244 592 l 72 621 q 353 707 199 707 q 524 650 464 707 q 585 482 585 593 l 585 181 q 618 111 585 111 q 688 128 629 111 l 717 26 m 418 258 l 418 290 q 215 179 215 290 q 240 131 215 149 q 296 113 264 113 q 384 158 350 113 q 418 258 418 203 z "},"b":{"ha":775,"x_min":75,"x_max":736,"o":"m 736 349 q 648 90 736 196 q 410 -17 560 -17 q 204 79 282 -17 l 175 -1 l 89 -1 q 94 90 94 60 l 94 990 q 85 1027 94 992 q 75 1067 76 1063 l 261 1067 l 261 731 q 260 667 261 697 q 258 635 258 638 q 454 706 342 706 q 609 650 543 706 q 706 515 675 594 q 736 349 736 435 m 554 340 q 540 444 554 393 q 489 536 526 494 q 397 578 451 578 q 261 511 321 578 l 261 285 q 296 151 261 206 q 406 97 331 97 q 497 141 461 97 q 543 235 532 185 q 554 340 554 286 z "},"c":{"ha":625,"x_min":36,"x_max":614,"o":"m 614 49 q 493 -1 544 14 q 374 -17 442 -17 q 124 83 213 -17 q 36 346 36 182 q 134 608 36 508 q 393 708 232 708 q 503 690 444 708 q 603 642 561 672 l 519 536 q 378 590 447 590 q 258 514 297 590 q 219 349 219 438 q 235 233 219 286 q 293 140 251 179 q 399 100 335 100 q 543 168 463 100 l 614 49 z "},"d":{"ha":775,"x_min":39,"x_max":715,"o":"m 715 4 l 547 -12 q 526 71 536 18 q 444 7 499 31 q 335 -17 389 -17 q 117 90 194 -17 q 39 340 39 196 q 123 603 39 499 q 361 707 207 707 q 515 663 461 707 q 514 747 514 700 l 514 992 l 493 1067 l 681 1067 l 681 197 q 715 4 681 68 m 514 179 l 514 406 q 482 537 514 485 q 376 589 450 589 q 283 547 319 589 q 233 453 246 504 q 221 347 221 403 q 260 181 221 256 q 382 107 299 107 q 456 127 419 107 q 514 179 493 147 z "},"e":{"ha":686,"x_min":36,"x_max":647,"o":"m 647 408 q 576 325 647 325 l 213 325 q 260 166 213 236 q 392 96 307 96 q 481 117 435 96 q 560 169 528 138 l 631 58 q 517 3 588 22 q 383 -15 447 -15 q 129 81 222 -15 q 36 340 36 178 q 123 602 36 494 q 360 710 210 710 q 572 628 496 710 q 647 408 647 546 m 474 465 q 444 559 474 522 q 361 596 415 596 q 263 544 306 596 q 217 435 219 493 l 450 435 q 474 465 474 435 z "},"f":{"ha":400,"x_min":4,"x_max":567,"o":"m 567 1046 l 522 933 q 436 964 479 964 q 353 941 386 964 q 307 875 321 918 q 289 796 293 832 q 285 710 285 760 l 285 690 l 454 690 l 422 579 l 285 579 l 285 -1 l 118 -1 l 118 579 l 4 579 l 4 678 q 121 739 108 678 q 133 801 125 756 q 147 863 142 847 q 163 910 151 879 q 193 965 175 942 q 239 1014 211 988 q 429 1078 311 1078 q 567 1046 515 1078 z "},"g":{"ha":664,"x_min":0,"x_max":699,"o":"m 344 126 l 408 126 q 479 124 450 126 q 544 113 508 122 q 603 88 581 104 q 642 42 626 72 q 657 -32 657 11 q 597 -194 657 -126 q 453 -291 536 -262 q 278 -319 369 -319 q 187 -312 231 -319 q 99 -287 143 -304 q 27 -233 54 -269 q 0 -146 0 -197 q 35 -40 0 -87 q 122 32 71 8 l 122 38 q 78 72 97 44 q 58 132 58 100 q 73 158 58 143 q 115 201 88 172 q 164 268 142 231 q 40 472 40 338 q 117 644 40 578 q 303 711 194 711 q 381 701 333 711 q 451 690 428 690 q 699 706 521 690 l 668 590 l 550 590 q 518 597 542 590 q 563 474 563 540 q 484 300 563 367 q 296 233 406 233 q 250 215 269 233 q 231 171 231 197 q 344 126 231 126 m 364 0 l 238 0 q 189 -48 208 -15 q 169 -114 169 -81 q 210 -179 169 -158 q 299 -200 250 -200 q 367 -194 335 -200 q 430 -176 399 -189 q 480 -135 461 -162 q 499 -69 499 -108 q 364 0 499 0 m 238 369 q 301 331 261 331 q 366 369 342 331 q 390 468 390 408 q 366 567 390 528 q 301 607 342 607 q 238 567 261 607 q 214 468 214 528 q 238 369 214 408 z "},"h":{"ha":760,"x_min":81,"x_max":668,"o":"m 668 0 l 500 0 l 500 450 q 496 513 500 489 q 471 558 492 538 q 413 578 450 578 q 334 552 382 578 q 263 501 286 526 l 263 0 l 97 0 l 97 993 l 81 1068 l 263 1068 l 263 625 q 463 710 365 710 q 622 647 575 710 q 668 467 668 585 l 668 0 z "},"i":{"ha":349,"x_min":67,"x_max":281,"o":"m 257 0 l 90 0 l 90 615 q 87 633 90 617 q 79 669 83 650 q 75 690 75 689 l 257 690 l 257 0 m 249 1018 q 281 942 281 986 q 249 866 281 897 q 174 835 218 835 q 98 866 129 835 q 67 942 67 897 q 98 1018 67 986 q 174 1050 129 1050 q 249 1018 218 1050 z "},"j":{"ha":349,"x_min":-15,"x_max":279,"o":"m 257 92 q 253 -17 257 31 q 234 -119 249 -65 q 194 -211 219 -174 q 123 -276 168 -249 q 15 -311 78 -304 l -15 -235 q 45 -183 22 -214 q 77 -106 68 -151 q 88 -29 86 -60 q 90 56 90 1 l 90 617 q 86 635 90 618 q 78 669 82 651 q 74 690 74 688 l 257 690 l 257 92 m 247 1018 q 279 942 279 986 q 248 866 279 897 q 172 835 217 835 q 97 866 128 835 q 65 942 65 897 q 97 1018 65 986 q 172 1050 128 1050 q 247 1018 217 1050 z "},"k":{"ha":646,"x_min":76,"x_max":682,"o":"m 682 0 l 494 0 l 265 354 l 265 0 l 94 0 l 94 993 l 76 1068 l 265 1068 l 265 406 l 479 690 l 642 690 l 418 399 l 682 0 z "},"l":{"ha":349,"x_min":72,"x_max":257,"o":"m 257 0 l 88 0 l 88 993 q 84 1011 88 994 q 76 1047 81 1028 q 72 1068 72 1067 l 257 1068 l 257 0 z "},"m":{"ha":1151,"x_min":61,"x_max":1064,"o":"m 1064 0 l 897 0 l 897 461 q 878 548 897 518 q 806 578 858 578 q 734 554 774 578 q 667 503 694 531 l 667 0 l 499 0 l 499 465 q 411 578 499 578 q 338 555 378 578 q 271 501 299 532 l 271 0 l 104 0 l 104 494 q 61 685 104 633 l 236 706 q 260 617 253 669 q 472 708 365 708 q 644 607 601 708 q 869 708 746 708 q 1020 646 976 708 q 1064 471 1064 583 l 1064 0 z "},"n":{"ha":760,"x_min":60,"x_max":675,"o":"m 675 0 l 507 0 l 507 450 q 503 513 507 489 q 478 558 499 538 q 419 578 457 578 q 341 552 389 578 q 269 501 293 526 l 269 0 l 103 0 l 103 494 q 60 685 103 633 l 235 706 q 258 617 251 669 q 469 710 361 710 q 628 647 582 710 q 675 467 675 585 l 675 0 z "},"o":{"ha":744,"x_min":36,"x_max":708,"o":"m 36 346 q 128 603 36 499 q 372 708 221 708 q 617 604 525 708 q 708 346 708 500 q 617 88 708 192 q 372 -17 525 -17 q 128 88 219 -17 q 36 346 36 192 m 372 594 q 277 550 314 594 q 230 454 240 506 q 219 344 219 403 q 230 235 219 286 q 277 139 240 183 q 372 94 314 94 q 451 118 418 94 q 498 182 483 142 q 519 261 513 222 q 525 344 525 300 q 519 428 525 389 q 498 507 513 467 q 451 571 483 547 q 372 594 418 594 z "},"p":{"ha":772,"x_min":53,"x_max":736,"o":"m 736 353 q 651 90 736 194 q 413 -14 567 -14 q 258 31 315 -14 q 261 -50 261 -26 l 261 -225 q 281 -301 278 -294 l 93 -301 l 93 496 q 53 685 93 626 l 226 706 q 247 622 240 668 q 332 686 276 663 q 439 710 388 710 q 658 604 579 710 q 736 353 736 499 m 554 346 q 515 512 554 438 q 393 586 476 586 q 319 566 356 586 q 261 514 282 546 l 261 288 q 293 156 261 208 q 399 104 325 104 q 492 147 456 104 q 542 240 529 189 q 554 346 554 290 z "},"q":{"ha":772,"x_min":38,"x_max":697,"o":"m 697 -301 l 511 -301 l 511 -49 q 513 15 511 -14 q 514 57 514 44 q 318 -15 429 -15 q 113 94 188 -15 q 38 342 38 204 q 125 601 38 496 q 363 707 213 707 q 568 613 490 707 l 597 690 l 683 690 q 679 601 679 644 l 679 -225 q 683 -244 679 -226 q 692 -280 688 -261 q 697 -301 697 -299 m 511 174 l 511 407 q 476 540 511 486 q 368 594 442 594 q 294 570 325 594 q 248 506 264 546 q 225 425 232 467 q 218 339 218 383 q 232 236 218 286 q 283 146 246 186 q 375 106 321 106 q 511 174 453 106 z "},"r":{"ha":485,"x_min":50,"x_max":489,"o":"m 489 704 l 461 539 l 456 539 q 349 505 394 539 q 261 411 304 471 l 261 0 l 94 0 l 94 504 q 50 690 94 631 l 226 704 q 260 558 257 635 q 359 662 296 619 q 489 704 422 704 z "},"s":{"ha":597,"x_min":44,"x_max":546,"o":"m 546 215 q 465 44 546 108 q 275 -19 385 -19 q 44 40 153 -19 l 104 154 q 261 99 199 99 q 335 122 306 99 q 365 188 365 144 q 334 250 365 225 q 258 290 303 275 q 169 326 214 306 q 92 388 124 346 q 61 492 61 429 q 141 652 61 596 q 328 708 221 708 q 532 665 446 708 l 474 549 q 336 596 413 596 q 269 577 297 596 q 242 522 242 558 q 273 465 242 488 q 349 427 304 443 q 439 390 394 411 q 515 326 483 369 q 546 215 546 282 z "},"t":{"ha":454,"x_min":3,"x_max":454,"o":"m 454 15 q 290 -14 361 -14 q 158 28 200 -14 q 117 161 117 69 l 117 581 l 3 581 l 3 672 q 97 710 56 674 q 160 792 139 746 q 193 892 181 838 l 314 892 q 286 690 286 774 l 454 690 l 421 581 l 286 581 l 286 199 q 344 106 286 106 q 435 119 376 106 l 454 15 z "},"u":{"ha":768,"x_min":76,"x_max":797,"o":"m 797 26 q 749 12 788 24 q 684 -6 710 0 q 635 -11 658 -11 q 564 15 593 -11 q 526 82 535 40 q 299 -19 428 -19 q 138 44 185 -19 q 92 224 92 107 l 92 615 l 76 690 l 261 690 l 261 253 q 351 114 261 114 q 456 151 413 114 q 499 249 499 189 l 499 615 q 494 633 499 617 q 486 669 490 650 q 482 690 482 688 l 668 690 l 668 183 q 703 111 668 111 q 768 128 706 111 l 797 26 z "},"v":{"ha":632,"x_min":-3,"x_max":635,"o":"m 635 690 l 390 -6 l 240 -6 l -3 690 l 176 690 l 303 326 q 332 210 315 293 q 356 326 350 308 l 485 690 l 635 690 z "},"w":{"ha":914,"x_min":-17,"x_max":931,"o":"m 931 690 l 711 -6 l 582 -6 q 539 134 574 25 q 485 314 504 243 q 454 457 467 385 q 428 337 444 401 q 397 226 411 272 q 358 106 382 181 q 321 -6 333 32 l 189 -6 l -17 690 l 158 690 l 251 378 q 274 240 261 346 q 278 283 275 251 q 286 335 282 314 q 297 378 290 357 l 397 690 l 551 690 l 644 378 q 654 335 650 357 q 662 285 658 314 q 667 242 665 256 q 689 378 679 344 l 788 690 l 931 690 z "},"x":{"ha":619,"x_min":-19,"x_max":639,"o":"m 639 0 l 453 0 l 301 236 l 144 0 l -19 0 l 222 363 l 11 690 l 199 690 l 318 506 l 439 690 l 604 690 l 397 381 l 639 0 z "},"y":{"ha":633,"x_min":-3,"x_max":636,"o":"m 636 690 l 390 -4 q 89 -307 285 -307 l 38 -307 l 38 -189 q 74 -193 54 -193 q 141 -176 111 -193 q 191 -125 171 -158 q 223 -65 211 -92 q 247 1 235 -37 l -3 690 l 176 690 q 236 522 186 661 q 311 307 286 382 q 323 251 317 289 q 331 203 329 213 q 350 307 346 292 l 483 690 l 636 690 z "},"z":{"ha":618,"x_min":24,"x_max":594,"o":"m 594 115 l 575 0 l 24 0 l 24 85 l 349 575 l 58 575 l 58 690 l 575 690 l 575 604 l 246 115 l 594 115 z "},"{":{"ha":485,"x_min":72,"x_max":447,"o":"m 447 -204 l 383 -204 q 163 33 163 -204 l 163 254 q 140 335 163 300 q 72 369 117 369 l 72 454 q 161 578 161 454 l 161 790 q 210 963 161 899 q 365 1026 260 1026 l 447 1026 l 447 940 q 350 917 375 940 q 325 824 325 894 l 325 593 q 249 411 325 451 q 324 231 324 371 l 324 0 q 347 -96 324 -75 q 447 -117 369 -117 l 447 -204 z "},"|":{"ha":326,"x_min":97,"x_max":233,"o":"m 233 -161 l 97 -161 l 97 1035 l 233 1035 l 233 -161 z "},"}":{"ha":485,"x_min":38,"x_max":413,"o":"m 413 371 q 346 336 368 371 q 324 254 324 301 l 324 33 q 101 -204 324 -204 l 38 -204 l 38 -118 q 139 -98 118 -118 q 160 0 160 -78 l 160 231 q 236 411 160 371 q 161 593 161 451 l 161 824 q 135 916 161 893 q 38 939 110 939 l 38 1026 l 119 1026 q 274 963 225 1026 q 322 790 322 899 l 322 578 q 344 492 322 528 q 413 456 365 456 l 413 371 z "},"~":{"ha":921,"x_min":107,"x_max":821,"o":"m 821 415 q 725 314 783 358 q 610 269 667 269 q 456 318 553 269 q 310 367 360 367 q 197 263 247 367 l 107 339 q 191 447 135 401 q 310 492 247 492 q 478 443 378 492 q 610 394 578 394 q 733 496 676 394 l 821 415 z "},"¡":{"ha":457,"x_min":115,"x_max":329,"o":"m 329 -128 q 276 -172 329 -172 l 178 -172 q 124 -124 124 -172 l 164 531 l 288 531 l 329 -128 m 297 825 q 329 749 329 793 q 298 673 329 704 q 222 642 267 642 q 147 673 178 642 q 115 749 115 704 q 147 825 115 793 q 222 857 178 857 q 297 825 267 857 z "},"¢":{"ha":625,"x_min":36,"x_max":614,"o":"m 614 49 q 356 -17 492 -17 l 340 -178 l 240 -178 l 285 -7 q 98 116 160 21 q 36 346 36 211 q 121 595 36 497 q 354 707 206 693 l 367 864 l 469 864 l 431 706 q 603 642 525 696 l 519 536 q 378 590 447 590 q 258 514 297 590 q 219 349 219 438 q 235 233 219 286 q 293 140 251 179 q 399 100 335 100 q 543 168 463 100 l 614 49 z "},"£":{"ha":807,"x_min":47,"x_max":771,"o":"m 771 0 l 47 0 l 47 139 l 176 139 l 176 475 l 69 475 l 69 613 l 176 613 l 176 747 q 262 958 176 882 q 483 1033 347 1033 q 756 874 654 1033 l 619 799 q 482 900 567 900 q 394 863 425 900 q 364 767 364 825 l 364 613 l 544 613 l 544 475 l 364 475 l 364 139 l 771 139 l 771 0 z "},"¤":{"ha":744,"x_min":51,"x_max":689,"o":"m 593 144 l 521 215 q 369 168 454 168 q 218 215 285 168 l 147 144 l 51 240 l 129 317 q 94 461 94 383 q 129 606 94 539 l 51 685 l 147 781 l 219 707 q 369 754 286 754 q 519 707 453 754 l 593 781 l 689 685 l 610 606 q 646 461 646 536 q 610 318 646 386 l 689 240 l 593 144 m 369 285 q 471 331 428 285 q 514 464 514 376 q 475 588 514 538 q 371 638 436 638 q 267 588 307 638 q 226 461 226 538 q 271 331 226 378 q 369 285 315 285 z "},"¥":{"ha":697,"x_min":33,"x_max":664,"o":"m 664 690 l 522 444 l 661 444 l 661 376 l 482 376 l 438 300 l 438 293 l 661 293 l 661 225 l 438 225 l 438 0 l 269 0 l 269 225 l 35 225 l 35 293 l 269 293 l 269 300 l 222 376 l 35 376 l 35 444 l 182 444 l 33 690 l 236 690 l 367 461 l 493 690 l 664 690 z "},"¦":{"ha":331,"x_min":97,"x_max":233,"o":"m 233 544 l 97 544 l 97 1035 l 233 1035 l 233 544 m 233 -161 l 97 -161 l 97 329 l 233 329 l 233 -161 z "},"§":{"ha":699,"x_min":40,"x_max":658,"o":"m 54 -29 l 135 92 q 290 39 203 39 q 380 59 344 39 q 415 117 415 79 q 376 181 415 154 q 283 230 338 208 q 173 280 228 251 q 79 363 118 308 q 40 496 40 418 q 150 682 40 613 q 111 807 111 732 q 197 976 111 922 q 417 1031 283 1031 q 550 1010 483 1031 q 644 965 617 989 l 564 844 q 408 897 496 897 q 319 877 354 897 q 283 819 283 857 q 322 755 283 782 q 416 706 361 728 q 526 656 471 685 q 619 573 581 628 q 658 440 658 518 q 547 254 658 324 q 588 129 588 203 q 501 -40 588 14 q 282 -94 415 -94 q 149 -74 215 -94 q 54 -29 82 -53 m 258 601 q 211 522 211 571 q 223 466 211 490 q 263 423 235 442 q 312 392 290 404 q 376 363 333 381 q 439 335 419 344 q 488 414 488 364 q 475 470 488 446 q 436 513 463 494 q 386 544 410 532 q 322 573 363 556 q 258 601 281 590 z "},"¨":{"ha":383,"x_min":-8,"x_max":385,"o":"m 304 786 q 249 810 272 786 q 225 865 225 833 q 249 921 225 897 q 304 944 272 944 q 361 922 338 944 q 385 865 385 899 q 361 809 385 832 q 304 786 338 786 m 136 925 q 161 865 161 900 q 137 806 161 831 q 76 781 113 781 q 16 806 40 781 q -8 865 -8 831 q 16 925 -8 900 q 76 950 40 950 q 136 925 113 950 z "},"©":{"ha":882,"x_min":54,"x_max":824,"o":"m 439 -37 q 167 75 279 -37 q 54 347 54 188 q 167 619 54 507 q 439 732 279 732 q 710 619 597 732 q 824 347 824 506 q 710 76 824 189 q 439 -37 597 -37 m 671 114 q 768 347 768 211 q 672 580 768 483 q 439 676 575 676 q 206 580 303 676 q 110 347 110 483 q 206 115 110 211 q 439 18 303 18 q 671 114 575 18 m 604 156 q 443 111 518 111 q 281 176 339 111 q 224 347 224 242 q 288 519 224 453 q 456 585 351 585 q 597 536 532 585 l 536 458 q 446 496 489 496 q 376 449 399 496 q 353 349 353 403 q 378 244 353 289 q 460 199 404 199 q 551 244 508 199 l 604 156 z "},"ª":{"ha":438,"x_min":-4,"x_max":453,"o":"m 374 378 l 42 378 l 42 458 l 374 458 l 374 378 m 433 631 l 453 564 q 354 539 399 539 q 275 600 290 539 q 133 536 213 536 q 34 571 72 536 q -4 661 -4 606 q 19 742 -4 708 q 84 791 43 775 q 167 814 125 807 q 257 821 208 821 l 257 872 q 183 936 257 936 q 61 883 129 936 l 15 956 q 200 1013 100 1013 q 364 864 364 1013 l 364 667 q 393 619 364 619 q 433 631 411 619 m 257 717 l 257 746 q 110 672 110 746 q 124 635 110 650 q 163 621 138 621 q 229 649 201 621 q 257 717 257 678 z "},"«":{"ha":647,"x_min":50,"x_max":607,"o":"m 372 240 l 267 225 l 50 461 l 261 700 l 368 681 l 203 461 l 372 240 m 607 240 l 501 225 l 285 461 l 496 700 l 603 681 l 438 461 l 607 240 z "},"¬":{"ha":886,"x_min":97,"x_max":789,"o":"m 789 110 l 669 110 l 669 371 l 97 371 l 97 486 l 789 486 l 789 110 z "},"­":{"ha":435,"x_min":68,"x_max":375,"o":"m 375 292 l 68 292 l 68 424 l 375 424 l 375 292 z "},"®":{"ha":638,"x_min":29,"x_max":614,"o":"m 528 1054 q 614 847 614 968 q 528 640 614 726 q 321 554 442 554 q 115 640 200 554 q 29 847 29 726 q 115 1054 29 968 q 321 1140 200 1140 q 528 1054 442 1140 m 565 847 q 494 1019 565 947 q 321 1090 422 1090 q 149 1019 221 1090 q 78 847 78 949 q 149 675 78 746 q 321 604 221 604 q 494 675 422 604 q 565 847 565 746 m 490 690 l 392 690 l 300 824 l 286 824 l 286 690 l 203 690 l 203 1017 l 332 1017 q 447 921 447 1017 q 388 839 447 865 l 490 690 m 364 924 q 322 951 364 951 l 286 951 l 286 889 l 313 889 q 364 924 364 889 z "},"¯":{"ha":381,"x_min":-15,"x_max":394,"o":"m 394 807 l -15 807 l -15 910 l 394 910 l 394 807 z "},"°":{"ha":539,"x_min":68,"x_max":472,"o":"m 472 824 q 413 681 472 739 q 269 622 354 622 q 127 681 186 622 q 68 824 68 740 q 127 966 68 907 q 269 1025 186 1025 q 413 966 353 1025 q 472 824 472 907 m 347 744 q 379 824 379 778 q 347 903 379 869 q 269 936 315 936 q 192 903 224 936 q 161 824 161 869 q 192 744 161 778 q 269 711 224 711 q 347 744 315 711 z "},"±":{"ha":878,"x_min":93,"x_max":785,"o":"m 785 371 l 500 371 l 500 167 l 378 167 l 378 369 l 93 369 l 93 488 l 378 488 l 378 690 l 500 690 l 500 489 l 785 489 l 785 371 m 785 1 l 96 1 l 96 124 l 785 124 l 785 1 z "},"²":{"ha":632,"x_min":60,"x_max":582,"o":"m 544 608 l 60 608 l 60 679 q 96 709 74 690 q 176 782 118 728 q 278 885 233 836 q 358 997 322 935 q 394 1103 394 1058 q 370 1165 394 1142 q 307 1189 346 1189 q 226 1169 269 1189 q 158 1128 183 1149 l 135 1108 l 74 1200 q 107 1228 85 1211 q 198 1272 129 1244 q 338 1299 267 1299 q 502 1247 446 1299 q 558 1117 558 1194 q 530 1000 558 1060 q 460 896 501 940 q 379 815 419 851 q 311 760 339 779 l 282 740 l 582 740 l 544 608 z "},"³":{"ha":632,"x_min":67,"x_max":564,"o":"m 88 590 l 67 686 q 317 738 229 694 q 406 851 406 782 q 263 933 406 933 l 214 931 l 199 1011 q 382 1140 382 1049 q 362 1176 382 1163 q 314 1189 342 1189 q 133 1119 219 1189 l 74 1204 q 198 1272 125 1244 q 336 1299 271 1299 q 476 1269 418 1299 q 533 1168 533 1239 q 415 1025 533 1067 q 564 864 564 999 q 553 801 564 832 q 512 733 543 771 q 431 667 481 696 q 292 616 381 638 q 88 590 203 594 z "},"´":{"ha":390,"x_min":46,"x_max":399,"o":"m 399 1049 l 189 819 l 46 819 l 197 1049 l 399 1049 z "},"µ":{"ha":763,"x_min":78,"x_max":797,"o":"m 797 26 q 749 12 788 24 q 684 -6 710 0 q 635 -11 658 -11 q 565 14 593 -11 q 526 81 536 39 q 356 -14 446 -14 q 265 7 310 -14 l 265 -258 l 93 -258 l 93 618 q 90 636 93 619 q 82 672 86 653 q 78 692 78 690 l 261 692 l 261 260 q 353 117 261 117 q 499 182 436 117 l 499 618 q 494 636 499 619 q 486 671 490 653 q 482 692 482 689 l 667 692 l 667 183 q 701 111 667 111 q 768 128 706 111 l 797 26 z "},"¶":{"ha":694,"x_min":56,"x_max":632,"o":"m 632 922 l 554 922 l 554 14 q 509 -95 554 -50 q 400 -140 464 -140 q 376 -137 393 -140 q 319 -197 356 -175 q 240 -219 283 -219 q 131 -174 176 -219 q 86 -65 86 -129 q 131 44 86 -1 q 240 89 176 89 l 240 14 q 185 -10 208 14 q 161 -65 161 -33 q 185 -121 161 -97 q 240 -144 208 -144 q 295 -121 272 -144 q 318 -65 318 -97 l 318 461 q 132 536 208 461 q 56 722 56 611 q 141 928 56 858 q 365 997 226 997 l 632 997 l 632 922 m 479 14 l 479 922 l 394 922 l 394 -65 l 400 -65 q 456 -42 432 -65 q 479 14 479 -18 z "},"·":{"ha":407,"x_min":94,"x_max":308,"o":"m 276 435 q 308 358 308 403 q 277 283 308 314 q 201 251 246 251 q 126 283 157 251 q 94 358 94 314 q 126 435 94 403 q 201 467 157 467 q 276 435 246 467 z "},"¸":{"ha":389,"x_min":35,"x_max":350,"o":"m 163 -306 q 35 -264 106 -306 l 74 -194 q 167 -225 131 -225 q 205 -212 189 -225 q 221 -179 221 -199 q 175 -139 221 -139 l 110 -139 q 83 -115 83 -139 q 88 -101 83 -108 l 154 13 l 236 13 l 192 -67 l 197 -67 q 306 -92 261 -67 q 350 -175 350 -117 q 163 -306 350 -306 z "},"¹":{"ha":632,"x_min":63,"x_max":578,"o":"m 578 608 l 86 608 l 86 718 l 271 718 l 271 1139 l 97 1090 l 63 1188 q 311 1283 190 1226 l 429 1283 l 429 718 l 578 718 l 578 608 z "},"º":{"ha":461,"x_min":6,"x_max":463,"o":"m 401 953 q 463 778 463 885 q 401 603 463 671 q 233 536 339 536 q 67 603 128 536 q 6 778 6 671 q 67 953 6 885 q 235 1021 129 1021 q 401 953 340 1021 m 399 378 l 67 378 l 67 458 l 399 458 l 399 378 m 339 778 q 315 894 339 844 q 233 944 292 944 q 129 778 129 944 q 153 662 129 711 q 235 613 176 613 q 339 778 339 613 z "},"»":{"ha":647,"x_min":53,"x_max":607,"o":"m 374 461 l 157 225 l 53 240 l 222 461 l 56 681 l 163 700 l 374 461 m 607 461 l 390 225 l 286 240 l 456 461 l 289 681 l 396 700 l 607 461 z "},"¼":{"ha":1457,"x_min":63,"x_max":1418,"o":"m 621 -37 l 506 -37 l 938 1046 l 1054 1046 l 621 -37 m 1318 0 l 1160 0 l 1160 140 l 847 140 l 847 213 l 1161 675 l 1318 675 l 1318 250 l 1418 250 l 1383 140 l 1318 140 l 1318 0 m 1160 250 l 1160 413 l 1171 536 q 1101 393 1149 464 l 1007 250 l 1160 250 m 578 342 l 86 342 l 86 451 l 271 451 l 271 872 l 97 824 l 63 921 q 311 1017 190 960 l 429 1017 l 429 451 l 578 451 l 578 342 z "},"½":{"ha":1524,"x_min":63,"x_max":1474,"o":"m 1435 0 l 953 0 l 953 72 l 965 83 q 1286 489 1286 372 q 1261 547 1286 525 q 1199 568 1236 568 q 1028 496 1121 568 l 967 592 q 1235 690 1094 690 q 1397 644 1332 690 q 1461 504 1461 599 q 1383 313 1461 410 q 1207 147 1306 217 l 1474 147 l 1435 0 m 621 -37 l 506 -37 l 938 1046 l 1054 1046 l 621 -37 m 578 342 l 86 342 l 86 451 l 271 451 l 271 872 l 97 824 l 63 921 q 311 1017 190 960 l 429 1017 l 429 451 l 578 451 l 578 342 z "},"¾":{"ha":1394,"x_min":67,"x_max":1356,"o":"m 558 -37 l 443 -37 l 875 1046 l 992 1046 l 558 -37 m 1256 0 l 1097 0 l 1097 140 l 785 140 l 785 213 l 1099 675 l 1256 675 l 1256 250 l 1356 250 l 1321 140 l 1256 140 l 1256 0 m 1097 250 l 1097 413 l 1108 536 q 1039 393 1086 464 l 944 250 l 1097 250 m 88 324 l 67 419 q 317 472 229 428 q 406 585 406 515 q 263 667 406 667 l 214 664 l 199 744 q 382 874 382 782 q 362 909 382 896 q 314 922 342 922 q 133 853 219 922 l 74 938 q 198 1005 125 978 q 336 1032 271 1032 q 476 1002 418 1032 q 533 901 533 972 q 415 758 533 800 q 564 597 564 732 q 553 535 564 565 q 512 467 543 504 q 431 400 481 429 q 292 349 381 371 q 88 324 203 328 z "},"¿":{"ha":599,"x_min":36,"x_max":568,"o":"m 568 -108 q 342 -169 474 -169 q 127 -105 218 -169 q 36 78 36 -40 q 247 338 36 254 q 265 367 265 344 l 265 532 l 414 532 l 414 247 q 278 199 340 242 q 215 89 215 157 q 258 -1 215 32 q 360 -35 301 -35 q 504 14 432 -35 l 568 -108 m 415 819 q 447 743 447 788 q 416 667 447 699 q 340 636 385 636 q 265 667 296 636 q 233 743 233 699 q 265 819 233 788 q 340 851 296 851 q 415 819 385 851 z "},"À":{"ha":876,"x_min":3,"x_max":874,"o":"m 874 0 l 674 0 l 575 264 l 264 264 l 164 0 l 3 0 l 360 944 l 514 944 l 874 0 m 522 400 q 419 749 483 515 q 315 400 378 593 l 522 400 m 532 996 l 389 996 l 179 1225 l 381 1225 l 532 996 z "},"Á":{"ha":876,"x_min":3,"x_max":874,"o":"m 874 0 l 674 0 l 575 264 l 264 264 l 164 0 l 3 0 l 360 944 l 514 944 l 874 0 m 522 400 q 419 749 483 515 q 315 400 378 593 l 522 400 m 693 1224 l 483 994 l 340 994 l 492 1224 l 693 1224 z "},"Â":{"ha":876,"x_min":3,"x_max":874,"o":"m 874 0 l 674 0 l 575 264 l 264 264 l 164 0 l 3 0 l 360 944 l 514 944 l 874 0 m 522 400 q 419 749 483 515 q 315 400 378 593 l 522 400 m 639 990 l 531 990 l 433 1093 l 338 990 l 232 990 l 365 1192 l 501 1192 l 639 990 z "},"Ã":{"ha":876,"x_min":3,"x_max":874,"o":"m 874 0 l 674 0 l 575 264 l 264 264 l 164 0 l 3 0 l 360 944 l 514 944 l 874 0 m 522 400 q 419 749 483 515 q 315 400 378 593 l 522 400 m 679 1153 q 640 1037 679 1083 q 532 990 600 990 q 433 1018 490 990 q 351 1046 375 1046 q 313 1035 331 1046 q 296 1004 296 1024 l 206 1004 q 245 1120 206 1074 q 353 1167 285 1167 q 452 1139 394 1167 q 533 1111 510 1111 q 571 1122 553 1111 q 590 1153 589 1133 l 679 1153 z "},"Ä":{"ha":876,"x_min":3,"x_max":874,"o":"m 874 0 l 674 0 l 575 264 l 264 264 l 164 0 l 3 0 l 360 944 l 514 944 l 874 0 m 522 400 q 419 749 483 515 q 315 400 378 593 l 522 400 m 550 1021 q 494 1044 518 1021 q 471 1100 471 1068 q 494 1156 471 1132 q 550 1179 518 1179 q 607 1156 583 1179 q 631 1100 631 1133 q 607 1044 631 1067 q 550 1021 583 1021 m 383 1156 q 407 1100 407 1133 q 384 1044 407 1067 q 328 1021 361 1021 q 272 1044 294 1021 q 249 1100 249 1067 q 272 1156 249 1133 q 328 1179 294 1179 q 383 1156 361 1179 z "},"Å":{"ha":876,"x_min":3,"x_max":874,"o":"m 874 0 l 674 0 l 575 264 l 264 264 l 164 0 l 3 0 l 351 922 q 288 1043 288 967 q 331 1146 288 1104 q 435 1188 374 1188 q 541 1147 497 1188 q 585 1044 585 1106 q 522 924 585 968 l 874 0 m 379 1044 q 396 1004 379 1021 q 435 988 413 988 q 475 1005 458 988 q 492 1044 492 1022 q 474 1083 492 1067 q 435 1100 457 1100 q 396 1083 413 1100 q 379 1044 379 1067 m 522 400 q 419 749 483 515 q 315 400 378 593 l 522 400 z "},"Æ":{"ha":1283,"x_min":-3,"x_max":1232,"o":"m 1232 0 l 614 0 l 614 292 l 315 292 l 167 0 l -3 0 l 468 931 l 449 1017 l 1232 1017 l 1232 879 l 806 879 l 806 592 l 1132 592 l 1132 454 l 806 454 l 806 138 l 1232 138 l 1232 0 m 614 428 l 614 879 l 386 428 l 614 428 z "},"Ç":{"ha":867,"x_min":28,"x_max":850,"o":"m 850 86 q 687 8 763 32 q 511 -17 611 -17 l 483 -67 l 489 -67 q 596 -92 550 -67 q 642 -175 642 -118 q 454 -306 642 -306 q 326 -264 397 -306 l 365 -194 q 458 -225 422 -225 q 497 -212 481 -225 q 513 -179 513 -199 q 467 -139 513 -139 l 401 -139 q 375 -115 375 -139 q 379 -101 375 -108 l 432 -11 q 132 157 236 14 q 28 515 28 300 q 160 889 28 742 q 515 1036 292 1036 q 696 1011 601 1036 q 844 938 790 986 l 744 810 q 644 876 707 851 q 522 901 582 901 q 352 843 419 901 q 260 703 285 785 q 235 519 235 621 q 252 384 235 453 q 303 253 269 315 q 394 153 336 192 q 525 114 453 114 q 763 218 654 114 l 850 86 z "},"È":{"ha":763,"x_min":75,"x_max":713,"o":"m 713 0 l 94 0 l 94 851 q 90 872 94 853 q 80 913 85 892 q 75 936 75 933 l 713 936 l 713 799 l 286 799 l 286 543 l 613 543 l 613 406 l 286 406 l 286 138 l 713 138 l 713 0 m 508 996 l 365 996 l 156 1225 l 357 1225 l 508 996 z "},"É":{"ha":763,"x_min":75,"x_max":713,"o":"m 713 0 l 94 0 l 94 851 q 90 872 94 853 q 80 913 85 892 q 75 936 75 933 l 713 936 l 713 799 l 286 799 l 286 543 l 613 543 l 613 406 l 286 406 l 286 138 l 713 138 l 713 0 m 656 1224 l 446 994 l 303 994 l 454 1224 l 656 1224 z "},"Ê":{"ha":763,"x_min":75,"x_max":713,"o":"m 713 0 l 94 0 l 94 851 q 90 872 94 853 q 80 913 85 892 q 75 936 75 933 l 713 936 l 713 799 l 286 799 l 286 543 l 613 543 l 613 406 l 286 406 l 286 138 l 713 138 l 713 0 m 614 996 l 506 996 l 408 1099 l 313 996 l 207 996 l 340 1197 l 476 1197 l 614 996 z "},"Ë":{"ha":763,"x_min":75,"x_max":713,"o":"m 713 0 l 94 0 l 94 851 q 90 872 94 853 q 80 913 85 892 q 75 936 75 933 l 713 936 l 713 799 l 286 799 l 286 543 l 613 543 l 613 406 l 286 406 l 286 138 l 713 138 l 713 0 m 525 1021 q 469 1044 493 1021 q 446 1100 446 1068 q 469 1156 446 1132 q 525 1179 493 1179 q 582 1156 558 1179 q 606 1100 606 1133 q 582 1044 606 1067 q 525 1021 558 1021 m 358 1156 q 382 1100 382 1133 q 359 1044 382 1067 q 303 1021 336 1021 q 247 1044 269 1021 q 224 1100 224 1067 q 247 1156 224 1133 q 303 1179 269 1179 q 358 1156 336 1179 z "},"Ì":{"ha":363,"x_min":-69,"x_max":285,"o":"m 285 0 l 93 0 l 93 851 q 88 872 93 853 q 78 913 83 892 q 74 936 74 933 l 285 936 l 285 0 m 283 996 l 140 996 l -69 1225 l 132 1225 l 283 996 z "},"Í":{"ha":363,"x_min":64,"x_max":417,"o":"m 283 0 l 92 0 l 92 851 q 87 872 92 853 q 77 913 82 892 q 72 936 72 933 l 283 936 l 283 0 m 417 1224 l 207 994 l 64 994 l 215 1224 l 417 1224 z "},"Î":{"ha":363,"x_min":-15,"x_max":392,"o":"m 285 0 l 93 0 l 93 851 q 88 872 93 853 q 78 913 83 892 q 74 936 74 933 l 285 936 l 285 0 m 392 990 l 283 990 l 186 1093 l 90 990 l -15 990 l 118 1192 l 254 1192 l 392 990 z "},"Ï":{"ha":363,"x_min":-4,"x_max":378,"o":"m 285 0 l 93 0 l 93 851 q 88 872 93 853 q 78 913 83 892 q 74 936 74 933 l 285 936 l 285 0 m 297 1021 q 242 1044 265 1021 q 218 1100 218 1068 q 242 1156 218 1132 q 297 1179 265 1179 q 354 1156 331 1179 q 378 1100 378 1133 q 354 1044 378 1067 q 297 1021 331 1021 m 131 1156 q 154 1100 154 1133 q 131 1044 154 1067 q 75 1021 108 1021 q 19 1044 42 1021 q -4 1100 -4 1067 q 19 1156 -4 1133 q 75 1179 42 1179 q 131 1156 108 1179 z "},"Ð":{"ha":993,"x_min":-22,"x_max":944,"o":"m 454 0 l 93 0 l 93 450 l -22 450 l -22 572 l 93 572 l 93 933 q 82 975 92 938 q 71 1017 72 1013 l 456 1017 q 815 877 685 1017 q 944 507 944 738 q 801 132 944 274 q 454 0 669 0 m 285 138 l 446 138 q 581 167 522 138 q 672 249 639 197 q 722 365 706 301 q 739 501 739 428 q 711 683 739 601 q 615 822 683 765 q 443 879 546 879 l 285 879 l 285 572 l 493 572 l 493 450 l 285 450 l 285 138 z "},"Ñ":{"ha":992,"x_min":99,"x_max":929,"o":"m 929 -7 l 790 -7 l 322 610 q 288 662 310 626 q 264 703 267 697 q 272 610 272 611 l 272 0 l 118 0 l 118 851 q 113 872 118 853 q 103 913 108 892 q 99 936 99 933 l 303 936 l 726 375 q 783 283 728 374 q 775 390 775 388 l 775 936 l 929 936 l 929 -7 m 776 1153 q 737 1037 776 1083 q 629 990 697 990 q 530 1018 588 990 q 449 1046 472 1046 q 410 1035 428 1046 q 393 1004 393 1024 l 303 1004 q 342 1120 303 1074 q 450 1167 382 1167 q 549 1139 492 1167 q 631 1111 607 1111 q 668 1122 650 1111 q 688 1153 686 1133 l 776 1153 z "},"Ò":{"ha":1022,"x_min":26,"x_max":997,"o":"m 513 -17 q 160 116 293 -17 q 26 467 26 249 q 160 817 26 685 q 511 950 293 950 q 864 817 731 950 q 997 467 997 685 q 864 116 997 249 q 513 -17 731 -17 m 793 467 q 723 717 793 617 q 513 818 653 818 q 300 717 371 818 q 229 468 229 615 q 245 338 229 399 q 294 226 261 276 q 382 146 326 175 q 510 117 438 117 q 722 218 651 117 q 793 467 793 319 m 579 996 l 436 996 l 226 1225 l 428 1225 l 579 996 z "},"Ó":{"ha":1022,"x_min":26,"x_max":997,"o":"m 513 -17 q 160 116 293 -17 q 26 467 26 249 q 160 817 26 685 q 511 950 293 950 q 864 817 731 950 q 997 467 997 685 q 864 116 997 249 q 513 -17 731 -17 m 793 467 q 723 717 793 617 q 513 818 653 818 q 300 717 371 818 q 229 468 229 615 q 245 338 229 399 q 294 226 261 276 q 382 146 326 175 q 510 117 438 117 q 722 218 651 117 q 793 467 793 319 m 792 1221 l 582 992 l 439 992 l 590 1221 l 792 1221 z "},"Ô":{"ha":1022,"x_min":26,"x_max":997,"o":"m 513 -17 q 160 116 293 -17 q 26 467 26 249 q 160 817 26 685 q 511 950 293 950 q 864 817 731 950 q 997 467 997 685 q 864 116 997 249 q 513 -17 731 -17 m 793 467 q 723 717 793 617 q 513 818 653 818 q 300 717 371 818 q 229 468 229 615 q 245 338 229 399 q 294 226 261 276 q 382 146 326 175 q 510 117 438 117 q 722 218 651 117 q 793 467 793 319 m 713 996 l 604 996 l 507 1099 l 411 996 l 306 996 l 439 1197 l 575 1197 l 713 996 z "},"Õ":{"ha":1022,"x_min":26,"x_max":997,"o":"m 513 -17 q 160 116 293 -17 q 26 467 26 249 q 160 817 26 685 q 511 950 293 950 q 864 817 731 950 q 997 467 997 685 q 864 116 997 249 q 513 -17 731 -17 m 793 467 q 723 717 793 617 q 513 818 653 818 q 300 717 371 818 q 229 468 229 615 q 245 338 229 399 q 294 226 261 276 q 382 146 326 175 q 510 117 438 117 q 722 218 651 117 q 793 467 793 319 m 760 1153 q 720 1037 760 1083 q 613 990 681 990 q 513 1018 571 990 q 432 1046 456 1046 q 394 1035 411 1046 q 376 1004 376 1024 l 286 1004 q 326 1120 286 1074 q 433 1167 365 1167 q 533 1139 475 1167 q 614 1111 590 1111 q 651 1122 633 1111 q 671 1153 669 1133 l 760 1153 z "},"Ö":{"ha":1022,"x_min":26,"x_max":997,"o":"m 513 -17 q 160 116 293 -17 q 26 467 26 249 q 160 817 26 685 q 511 950 293 950 q 864 817 731 950 q 997 467 997 685 q 864 116 997 249 q 513 -17 731 -17 m 793 467 q 723 717 793 617 q 513 818 653 818 q 300 717 371 818 q 229 468 229 615 q 245 338 229 399 q 294 226 261 276 q 382 146 326 175 q 510 117 438 117 q 722 218 651 117 q 793 467 793 319 m 617 1021 q 561 1044 585 1021 q 538 1100 538 1068 q 561 1156 538 1132 q 617 1179 585 1179 q 674 1156 650 1179 q 697 1100 697 1133 q 674 1044 697 1067 q 617 1021 650 1021 m 450 1156 q 474 1100 474 1133 q 451 1044 474 1067 q 394 1021 428 1021 q 338 1044 361 1021 q 315 1100 315 1067 q 338 1156 315 1133 q 394 1179 361 1179 q 450 1156 428 1179 z "},"×":{"ha":742,"x_min":83,"x_max":658,"o":"m 658 144 l 572 58 l 371 258 l 169 58 l 83 144 l 285 344 l 83 546 l 169 632 l 371 432 l 572 632 l 658 546 l 457 344 l 658 144 z "},"Ø":{"ha":1022,"x_min":26,"x_max":996,"o":"m 996 507 q 864 131 996 278 q 506 -15 732 -15 q 254 49 364 -15 l 172 -78 l 99 -35 l 186 100 q 26 510 26 239 q 153 886 26 740 q 507 1032 281 1032 q 756 975 647 1032 l 824 1079 l 897 1033 l 826 926 q 996 507 996 786 m 669 844 q 510 900 604 900 q 376 866 433 900 q 289 774 319 832 q 244 652 258 717 q 231 515 231 588 q 286 254 231 354 l 669 844 m 790 501 q 728 775 790 671 l 340 182 q 511 117 410 117 q 644 151 588 117 q 732 242 701 185 q 776 365 763 300 q 790 501 790 429 z "},"Ù":{"ha":982,"x_min":72,"x_max":894,"o":"m 894 936 l 894 374 q 786 79 894 174 q 494 -15 678 -15 q 198 88 301 -15 q 94 386 94 192 l 94 853 l 72 936 l 290 936 l 290 340 q 351 178 290 239 q 514 117 413 117 q 677 176 617 117 q 738 340 738 236 l 738 936 l 894 936 m 599 994 l 456 994 l 246 1224 l 447 1224 l 599 994 z "},"Ú":{"ha":982,"x_min":72,"x_max":894,"o":"m 894 936 l 894 374 q 786 79 894 174 q 494 -15 678 -15 q 198 88 301 -15 q 94 386 94 192 l 94 853 l 72 936 l 290 936 l 290 340 q 351 178 290 239 q 514 117 413 117 q 677 176 617 117 q 738 340 738 236 l 738 936 l 894 936 m 800 1224 l 590 994 l 447 994 l 599 1224 l 800 1224 z "},"Û":{"ha":982,"x_min":72,"x_max":894,"o":"m 894 936 l 894 374 q 786 79 894 174 q 494 -15 678 -15 q 198 88 301 -15 q 94 386 94 192 l 94 853 l 72 936 l 290 936 l 290 340 q 351 178 290 239 q 514 117 413 117 q 677 176 617 117 q 738 340 738 236 l 738 936 l 894 936 m 718 997 l 610 997 l 513 1100 l 417 997 l 311 997 l 444 1199 l 581 1199 l 718 997 z "},"Ü":{"ha":982,"x_min":72,"x_max":894,"o":"m 894 936 l 894 374 q 786 79 894 174 q 494 -15 678 -15 q 198 88 301 -15 q 94 386 94 192 l 94 853 l 72 936 l 290 936 l 290 340 q 351 178 290 239 q 514 117 413 117 q 677 176 617 117 q 738 340 738 236 l 738 936 l 894 936 m 625 1021 q 569 1044 593 1021 q 546 1100 546 1068 q 569 1156 546 1132 q 625 1179 593 1179 q 682 1156 658 1179 q 706 1100 706 1133 q 682 1044 706 1067 q 625 1021 658 1021 m 458 1156 q 482 1100 482 1133 q 459 1044 482 1067 q 403 1021 436 1021 q 347 1044 369 1021 q 324 1100 324 1067 q 347 1156 324 1133 q 403 1179 369 1179 q 458 1156 436 1179 z "},"Ý":{"ha":811,"x_min":14,"x_max":797,"o":"m 797 936 l 496 381 l 496 0 l 311 0 l 311 381 l 14 936 l 219 936 l 422 557 l 631 936 l 797 936 m 711 1224 l 501 994 l 358 994 l 510 1224 l 711 1224 z "},"Þ":{"ha":799,"x_min":74,"x_max":763,"o":"m 282 0 l 92 0 l 92 932 q 88 953 92 933 q 78 993 83 972 q 74 1017 74 1014 l 285 1017 l 285 857 l 393 857 q 661 785 560 857 q 763 553 763 714 q 656 326 763 403 q 396 249 550 249 l 282 249 l 282 0 m 283 383 l 400 383 q 517 430 475 383 q 560 553 560 476 q 519 675 560 631 q 401 719 479 719 l 283 719 l 283 383 z "},"ß":{"ha":819,"x_min":0,"x_max":794,"o":"m 794 263 q 708 60 794 136 q 493 -15 622 -15 q 313 26 403 -15 l 367 133 q 476 110 432 110 q 567 148 526 110 q 608 236 608 186 q 592 319 608 288 q 535 375 576 351 q 478 401 522 382 q 407 436 435 421 q 354 478 379 451 q 329 533 329 504 q 349 601 329 572 q 398 647 369 629 q 455 683 426 664 q 503 732 483 701 q 524 806 524 763 q 494 872 524 843 q 426 900 464 900 q 275 646 275 900 l 275 0 l 104 0 l 104 578 l 0 578 l 0 697 q 114 749 101 697 q 219 960 146 885 q 425 1035 292 1035 q 628 975 546 1035 q 710 799 710 915 q 680 694 710 736 q 615 635 650 651 q 551 601 581 619 q 521 564 521 583 q 564 526 521 546 q 658 485 607 506 q 751 406 708 464 q 794 263 794 349 z "},"à":{"ha":686,"x_min":42,"x_max":717,"o":"m 717 26 q 678 15 704 24 q 636 2 653 7 q 597 -7 619 -3 q 556 -11 574 -11 q 485 15 514 -11 q 446 82 456 40 q 238 -15 376 -15 q 97 32 153 -15 q 42 163 42 79 q 76 285 42 235 q 171 359 111 335 q 290 394 231 383 q 418 404 350 404 l 418 494 q 394 570 418 549 q 318 592 371 592 q 140 511 244 592 l 72 621 q 353 707 199 707 q 524 650 464 707 q 585 482 585 593 l 585 181 q 618 111 585 111 q 688 128 629 111 l 717 26 m 418 258 l 418 290 q 215 179 215 290 q 240 131 215 149 q 296 113 264 113 q 384 158 350 113 q 418 258 418 203 m 431 819 l 288 819 l 78 1049 l 279 1049 l 431 819 z "},"á":{"ha":686,"x_min":42,"x_max":717,"o":"m 633 1049 l 424 819 l 281 819 l 432 1049 l 633 1049 m 717 26 q 678 15 704 24 q 636 2 653 7 q 597 -7 619 -3 q 556 -11 574 -11 q 485 15 514 -11 q 446 82 456 40 q 238 -15 376 -15 q 97 32 153 -15 q 42 163 42 79 q 76 285 42 235 q 171 359 111 335 q 290 394 231 383 q 418 404 350 404 l 418 494 q 394 570 418 549 q 318 592 371 592 q 140 511 244 592 l 72 621 q 353 707 199 707 q 524 650 464 707 q 585 482 585 593 l 585 181 q 618 111 585 111 q 688 128 629 111 l 717 26 m 418 258 l 418 290 q 215 179 215 290 q 240 131 215 149 q 296 113 264 113 q 384 158 350 113 q 418 258 418 203 z "},"â":{"ha":686,"x_min":42,"x_max":717,"o":"m 556 817 l 447 817 l 350 919 l 254 817 l 149 817 l 282 1018 l 418 1018 l 556 817 m 717 26 q 678 15 704 24 q 636 2 653 7 q 597 -7 619 -3 q 556 -11 574 -11 q 485 15 514 -11 q 446 82 456 40 q 238 -15 376 -15 q 97 32 153 -15 q 42 163 42 79 q 76 285 42 235 q 171 359 111 335 q 290 394 231 383 q 418 404 350 404 l 418 494 q 394 570 418 549 q 318 592 371 592 q 140 511 244 592 l 72 621 q 353 707 199 707 q 524 650 464 707 q 585 482 585 593 l 585 181 q 618 111 585 111 q 688 128 629 111 l 717 26 m 418 258 l 418 290 q 215 179 215 290 q 240 131 215 149 q 296 113 264 113 q 384 158 350 113 q 418 258 418 203 z "},"ã":{"ha":686,"x_min":42,"x_max":717,"o":"m 589 947 q 549 831 589 878 q 442 785 510 785 q 342 813 400 785 q 261 840 285 840 q 223 829 240 840 q 206 799 206 818 l 115 799 q 155 915 115 868 q 263 961 194 961 q 362 933 304 961 q 443 906 419 906 q 481 917 463 906 q 500 947 499 928 l 589 947 m 717 26 q 678 15 704 24 q 636 2 653 7 q 597 -7 619 -3 q 556 -11 574 -11 q 485 15 514 -11 q 446 82 456 40 q 238 -15 376 -15 q 97 32 153 -15 q 42 163 42 79 q 76 285 42 235 q 171 359 111 335 q 290 394 231 383 q 418 404 350 404 l 418 494 q 394 570 418 549 q 318 592 371 592 q 140 511 244 592 l 72 621 q 353 707 199 707 q 524 650 464 707 q 585 482 585 593 l 585 181 q 618 111 585 111 q 688 128 629 111 l 717 26 m 418 258 l 418 290 q 215 179 215 290 q 240 131 215 149 q 296 113 264 113 q 384 158 350 113 q 418 258 418 203 z "},"ä":{"ha":686,"x_min":42,"x_max":717,"o":"m 456 796 q 400 819 424 796 q 376 875 376 843 q 400 931 376 907 q 456 954 424 954 q 513 931 489 954 q 536 875 536 908 q 513 819 536 842 q 456 796 489 796 m 288 935 q 313 875 313 910 q 288 815 313 840 q 228 790 264 790 q 167 815 192 790 q 143 875 143 840 q 167 935 143 910 q 228 960 192 960 q 288 935 264 960 m 717 26 q 678 15 704 24 q 636 2 653 7 q 597 -7 619 -3 q 556 -11 574 -11 q 485 15 514 -11 q 446 82 456 40 q 238 -15 376 -15 q 97 32 153 -15 q 42 163 42 79 q 76 285 42 235 q 171 359 111 335 q 290 394 231 383 q 418 404 350 404 l 418 494 q 394 570 418 549 q 318 592 371 592 q 140 511 244 592 l 72 621 q 353 707 199 707 q 524 650 464 707 q 585 482 585 593 l 585 181 q 618 111 585 111 q 688 128 629 111 l 717 26 m 418 258 l 418 290 q 215 179 215 290 q 240 131 215 149 q 296 113 264 113 q 384 158 350 113 q 418 258 418 203 z "},"å":{"ha":686,"x_min":42,"x_max":717,"o":"m 453 1018 q 497 914 497 975 q 453 809 497 853 q 347 765 408 765 q 242 809 286 765 q 199 914 199 853 q 242 1019 199 975 q 347 1063 286 1063 q 453 1018 408 1063 m 306 953 q 290 913 290 936 q 306 873 290 889 q 346 857 322 857 q 386 873 369 857 q 403 913 403 889 q 386 953 403 936 q 346 969 369 969 q 306 953 322 969 m 717 26 q 678 15 704 24 q 636 2 653 7 q 597 -7 619 -3 q 556 -11 574 -11 q 485 15 514 -11 q 446 82 456 40 q 238 -15 376 -15 q 97 32 153 -15 q 42 163 42 79 q 76 285 42 235 q 171 359 111 335 q 290 394 231 383 q 418 404 350 404 l 418 494 q 394 570 418 549 q 318 592 371 592 q 140 511 244 592 l 72 621 q 353 707 199 707 q 524 650 464 707 q 585 482 585 593 l 585 181 q 618 111 585 111 q 688 128 629 111 l 717 26 m 418 258 l 418 290 q 215 179 215 290 q 240 131 215 149 q 296 113 264 113 q 384 158 350 113 q 418 258 418 203 z "},"æ":{"ha":1042,"x_min":39,"x_max":1021,"o":"m 1021 393 q 950 310 1021 310 l 586 310 q 635 161 586 226 q 765 96 685 96 q 855 117 808 96 q 933 169 901 138 l 1004 58 q 890 4 961 24 q 757 -15 819 -15 q 486 101 572 -15 q 235 -15 406 -15 q 96 38 153 -15 q 39 172 39 90 q 74 296 39 244 q 167 373 108 347 q 287 409 226 399 q 415 419 347 419 l 415 494 q 392 570 415 549 q 315 592 368 592 q 138 511 242 592 l 69 621 q 350 707 196 707 q 535 633 479 707 q 624 690 568 669 q 733 710 679 710 q 947 623 874 710 q 1021 393 1021 536 m 846 450 q 736 594 846 594 q 632 539 674 594 q 590 419 590 483 l 824 419 q 846 450 846 419 m 415 310 q 326 301 368 310 q 249 263 285 293 q 213 186 213 233 q 235 131 213 150 q 294 113 257 113 q 415 310 415 113 z "},"ç":{"ha":625,"x_min":36,"x_max":614,"o":"m 614 49 q 493 -1 544 14 q 372 -17 442 -17 l 344 -67 l 350 -67 q 457 -92 411 -67 q 503 -175 503 -118 q 315 -306 503 -306 q 188 -264 258 -306 l 226 -194 q 319 -225 283 -225 q 358 -212 342 -225 q 374 -179 374 -199 q 328 -139 374 -139 l 263 -139 q 236 -115 236 -139 q 240 -101 236 -108 l 294 -10 q 103 108 169 14 q 36 346 36 203 q 134 608 36 508 q 393 708 232 708 q 503 690 444 708 q 603 642 561 672 l 519 536 q 378 590 447 590 q 258 514 297 590 q 219 349 219 438 q 235 233 219 286 q 293 140 251 179 q 399 100 335 100 q 543 168 463 100 l 614 49 z "},"è":{"ha":686,"x_min":36,"x_max":647,"o":"m 647 408 q 576 325 647 325 l 213 325 q 260 166 213 236 q 392 96 307 96 q 481 117 435 96 q 560 169 528 138 l 631 58 q 517 3 588 22 q 383 -15 447 -15 q 129 81 222 -15 q 36 340 36 178 q 123 602 36 494 q 360 710 210 710 q 572 628 496 710 q 647 408 647 546 m 474 465 q 444 559 474 522 q 361 596 415 596 q 263 544 306 596 q 217 435 219 493 l 450 435 q 474 465 474 435 m 444 819 l 301 819 l 92 1049 l 293 1049 l 444 819 z "},"é":{"ha":686,"x_min":36,"x_max":657,"o":"m 657 1049 l 447 819 l 304 819 l 456 1049 l 657 1049 m 647 408 q 576 325 647 325 l 213 325 q 260 166 213 236 q 392 96 307 96 q 481 117 435 96 q 560 169 528 138 l 631 58 q 517 3 588 22 q 383 -15 447 -15 q 129 81 222 -15 q 36 340 36 178 q 123 602 36 494 q 360 710 210 710 q 572 628 496 710 q 647 408 647 546 m 474 465 q 444 559 474 522 q 361 596 415 596 q 263 544 306 596 q 217 435 219 493 l 450 435 q 474 465 474 435 z "},"ê":{"ha":686,"x_min":36,"x_max":647,"o":"m 582 817 l 474 817 l 376 919 l 281 817 l 175 817 l 308 1018 l 444 1018 l 582 817 m 647 408 q 576 325 647 325 l 213 325 q 260 166 213 236 q 392 96 307 96 q 481 117 435 96 q 560 169 528 138 l 631 58 q 517 3 588 22 q 383 -15 447 -15 q 129 81 222 -15 q 36 340 36 178 q 123 602 36 494 q 360 710 210 710 q 572 628 496 710 q 647 408 647 546 m 474 465 q 444 559 474 522 q 361 596 415 596 q 263 544 306 596 q 217 435 219 493 l 450 435 q 474 465 474 435 z "},"ë":{"ha":686,"x_min":36,"x_max":647,"o":"m 479 794 q 424 818 447 794 q 400 874 400 842 q 424 929 400 906 q 479 953 447 953 q 536 930 513 953 q 560 874 560 907 q 536 817 560 840 q 479 794 513 794 m 311 933 q 336 874 336 908 q 312 814 336 839 q 251 789 288 789 q 191 814 215 789 q 167 874 167 839 q 191 933 167 908 q 251 958 215 958 q 311 933 288 958 m 647 408 q 576 325 647 325 l 213 325 q 260 166 213 236 q 392 96 307 96 q 481 117 435 96 q 560 169 528 138 l 631 58 q 517 3 588 22 q 383 -15 447 -15 q 129 81 222 -15 q 36 340 36 178 q 123 602 36 494 q 360 710 210 710 q 572 628 496 710 q 647 408 647 546 m 474 465 q 444 559 474 522 q 361 596 415 596 q 263 544 306 596 q 217 435 219 493 l 450 435 q 474 465 474 435 z "},"ì":{"ha":349,"x_min":-94,"x_max":258,"o":"m 258 0 l 92 0 l 92 615 q 88 633 92 617 q 81 669 85 650 q 76 690 76 689 l 258 690 l 258 0 m 258 819 l 115 819 l -94 1049 l 107 1049 l 258 819 z "},"í":{"ha":349,"x_min":75,"x_max":429,"o":"m 257 0 l 90 0 l 90 615 q 87 633 90 617 q 79 669 83 650 q 75 690 75 689 l 257 690 l 257 0 m 429 1049 l 219 819 l 76 819 l 228 1049 l 429 1049 z "},"î":{"ha":349,"x_min":-31,"x_max":376,"o":"m 376 817 l 268 817 l 171 919 l 75 817 l -31 817 l 103 1018 l 239 1018 l 376 817 m 257 0 l 90 0 l 90 615 q 87 633 90 617 q 79 669 83 650 q 75 690 75 689 l 257 690 l 257 0 z "},"ï":{"ha":349,"x_min":-28,"x_max":365,"o":"m 257 0 l 90 0 l 90 615 q 87 633 90 617 q 79 669 83 650 q 75 690 75 689 l 257 690 l 257 0 m 285 796 q 229 819 253 796 q 206 875 206 843 q 229 931 206 907 q 285 954 253 954 q 342 931 318 954 q 365 875 365 908 q 342 819 365 842 q 285 796 318 796 m 117 935 q 142 875 142 910 q 117 815 142 840 q 57 790 93 790 q -3 815 21 790 q -28 875 -28 840 q -3 935 -28 910 q 57 960 21 960 q 117 935 93 960 z "},"ð":{"ha":744,"x_min":36,"x_max":708,"o":"m 575 1004 l 449 933 q 708 346 708 621 q 617 88 708 192 q 372 -15 525 -15 q 128 88 219 -15 q 36 346 36 192 q 128 603 36 499 q 372 708 221 708 q 417 706 389 708 q 317 860 367 794 l 188 789 l 125 869 l 253 940 q 181 1015 228 968 l 303 1088 q 381 1011 326 1065 l 519 1088 l 575 1004 m 372 100 q 525 344 525 100 q 519 428 525 389 q 498 507 513 467 q 451 571 483 547 q 372 594 418 594 q 277 550 314 594 q 230 454 240 506 q 219 344 219 403 q 230 236 219 286 q 277 143 240 186 q 372 100 314 100 z "},"ñ":{"ha":760,"x_min":60,"x_max":675,"o":"m 643 956 q 603 840 643 886 q 496 793 564 793 q 397 821 454 793 q 315 849 339 849 q 277 838 294 849 q 260 807 260 826 l 169 807 q 209 923 169 876 q 317 969 249 969 q 416 942 358 969 q 497 914 474 914 q 535 925 517 914 q 554 956 553 936 l 643 956 m 675 0 l 507 0 l 507 450 q 503 513 507 489 q 478 558 499 538 q 419 578 457 578 q 341 552 389 578 q 269 501 293 526 l 269 0 l 103 0 l 103 494 q 60 685 103 633 l 235 706 q 258 617 251 669 q 469 710 361 710 q 628 647 582 710 q 675 467 675 585 l 675 0 z "},"ò":{"ha":744,"x_min":36,"x_max":708,"o":"m 36 346 q 128 603 36 499 q 372 708 221 708 q 617 604 525 708 q 708 346 708 500 q 617 88 708 192 q 372 -17 525 -17 q 128 88 219 -17 q 36 346 36 192 m 372 594 q 277 550 314 594 q 230 454 240 506 q 219 344 219 403 q 230 235 219 286 q 277 139 240 183 q 372 94 314 94 q 451 118 418 94 q 498 182 483 142 q 519 261 513 222 q 525 344 525 300 q 519 428 525 389 q 498 507 513 467 q 451 571 483 547 q 372 594 418 594 m 451 819 l 308 819 l 99 1049 l 300 1049 l 451 819 z "},"ó":{"ha":744,"x_min":36,"x_max":708,"o":"m 658 1049 l 449 819 l 306 819 l 457 1049 l 658 1049 m 36 346 q 128 603 36 499 q 372 708 221 708 q 617 604 525 708 q 708 346 708 500 q 617 88 708 192 q 372 -17 525 -17 q 128 88 219 -17 q 36 346 36 192 m 372 594 q 277 550 314 594 q 230 454 240 506 q 219 344 219 403 q 230 235 219 286 q 277 139 240 183 q 372 94 314 94 q 451 118 418 94 q 498 182 483 142 q 519 261 513 222 q 525 344 525 300 q 519 428 525 389 q 498 507 513 467 q 451 571 483 547 q 372 594 418 594 z "},"ô":{"ha":744,"x_min":36,"x_max":708,"o":"m 574 817 l 465 817 l 368 919 l 272 817 l 167 817 l 300 1018 l 436 1018 l 574 817 m 36 346 q 128 603 36 499 q 372 708 221 708 q 617 604 525 708 q 708 346 708 500 q 617 88 708 192 q 372 -17 525 -17 q 128 88 219 -17 q 36 346 36 192 m 372 594 q 277 550 314 594 q 230 454 240 506 q 219 344 219 403 q 230 235 219 286 q 277 139 240 183 q 372 94 314 94 q 451 118 418 94 q 498 182 483 142 q 519 261 513 222 q 525 344 525 300 q 519 428 525 389 q 498 507 513 467 q 451 571 483 547 q 372 594 418 594 z "},"õ":{"ha":744,"x_min":36,"x_max":708,"o":"m 621 947 q 581 831 621 878 q 474 785 542 785 q 374 813 432 785 q 293 840 317 840 q 255 829 272 840 q 238 799 238 818 l 147 799 q 187 915 147 868 q 294 961 226 961 q 394 933 336 961 q 475 906 451 906 q 513 917 494 906 q 532 947 531 928 l 621 947 m 36 346 q 128 603 36 499 q 372 708 221 708 q 617 604 525 708 q 708 346 708 500 q 617 88 708 192 q 372 -17 525 -17 q 128 88 219 -17 q 36 346 36 192 m 372 594 q 277 550 314 594 q 230 454 240 506 q 219 344 219 403 q 230 235 219 286 q 277 139 240 183 q 372 94 314 94 q 451 118 418 94 q 498 182 483 142 q 519 261 513 222 q 525 344 525 300 q 519 428 525 389 q 498 507 513 467 q 451 571 483 547 q 372 594 418 594 z "},"ö":{"ha":744,"x_min":36,"x_max":708,"o":"m 481 794 q 425 818 449 794 q 401 874 401 842 q 425 929 401 906 q 481 953 449 953 q 538 930 514 953 q 561 874 561 907 q 538 817 561 840 q 481 794 514 794 m 313 933 q 338 874 338 908 q 313 814 338 839 q 253 789 289 789 q 192 814 217 789 q 168 874 168 839 q 192 933 168 908 q 253 958 217 958 q 313 933 289 958 m 36 346 q 128 603 36 499 q 372 708 221 708 q 617 604 525 708 q 708 346 708 500 q 617 88 708 192 q 372 -17 525 -17 q 128 88 219 -17 q 36 346 36 192 m 372 594 q 277 550 314 594 q 230 454 240 506 q 219 344 219 403 q 230 235 219 286 q 277 139 240 183 q 372 94 314 94 q 451 118 418 94 q 498 182 483 142 q 519 261 513 222 q 525 344 525 300 q 519 428 525 389 q 498 507 513 467 q 451 571 483 547 q 372 594 418 594 z "},"÷":{"ha":875,"x_min":94,"x_max":783,"o":"m 783 283 l 94 283 l 94 406 l 783 406 l 783 283 m 514 168 q 546 92 546 136 q 515 16 546 47 q 439 -15 483 -15 q 363 16 394 -15 q 332 92 332 47 q 363 168 332 136 q 439 200 394 200 q 514 168 483 200 m 513 675 q 544 599 544 643 q 513 523 544 554 q 438 492 482 492 q 362 523 393 492 q 331 599 331 554 q 362 675 331 643 q 438 707 393 707 q 513 675 482 707 z "},"ø":{"ha":746,"x_min":36,"x_max":710,"o":"m 710 346 q 618 87 710 190 q 374 -17 526 -17 q 214 21 283 -17 l 124 -126 l 61 -79 l 150 65 q 36 346 36 169 q 128 604 36 500 q 374 708 221 708 q 528 674 458 708 l 603 793 l 671 757 l 592 631 q 710 346 710 526 m 460 563 q 374 594 426 594 q 278 550 315 594 q 231 454 242 506 q 221 344 221 403 q 239 208 221 267 l 460 563 m 525 344 q 506 490 525 432 l 283 132 q 374 94 321 94 q 451 118 419 94 q 498 182 483 142 q 519 261 513 222 q 525 344 525 300 z "},"ù":{"ha":768,"x_min":76,"x_max":797,"o":"m 797 26 q 749 12 788 24 q 684 -6 710 0 q 635 -11 658 -11 q 564 15 593 -11 q 526 82 535 40 q 299 -19 428 -19 q 138 44 185 -19 q 92 224 92 107 l 92 615 l 76 690 l 261 690 l 261 253 q 351 114 261 114 q 456 151 413 114 q 499 249 499 189 l 499 615 q 494 633 499 617 q 486 669 490 650 q 482 690 482 688 l 668 690 l 668 183 q 703 111 668 111 q 768 128 706 111 l 797 26 m 446 819 l 303 819 l 93 1049 l 294 1049 l 446 819 z "},"ú":{"ha":768,"x_min":76,"x_max":797,"o":"m 654 1049 l 444 819 l 301 819 l 453 1049 l 654 1049 m 797 26 q 749 12 788 24 q 684 -6 710 0 q 635 -11 658 -11 q 564 15 593 -11 q 526 82 535 40 q 299 -19 428 -19 q 138 44 185 -19 q 92 224 92 107 l 92 615 l 76 690 l 261 690 l 261 253 q 351 114 261 114 q 456 151 413 114 q 499 249 499 189 l 499 615 q 494 633 499 617 q 486 669 490 650 q 482 690 482 688 l 668 690 l 668 183 q 703 111 668 111 q 768 128 706 111 l 797 26 z "},"û":{"ha":768,"x_min":76,"x_max":797,"o":"m 579 818 l 471 818 l 374 921 l 278 818 l 172 818 l 306 1019 l 442 1019 l 579 818 m 797 26 q 749 12 788 24 q 684 -6 710 0 q 635 -11 658 -11 q 564 15 593 -11 q 526 82 535 40 q 299 -19 428 -19 q 138 44 185 -19 q 92 224 92 107 l 92 615 l 76 690 l 261 690 l 261 253 q 351 114 261 114 q 456 151 413 114 q 499 249 499 189 l 499 615 q 494 633 499 617 q 486 669 490 650 q 482 690 482 688 l 668 690 l 668 183 q 703 111 668 111 q 768 128 706 111 l 797 26 z "},"ü":{"ha":768,"x_min":76,"x_max":797,"o":"m 494 800 q 439 824 463 800 q 415 879 415 847 q 439 935 415 911 q 494 958 463 958 q 551 935 528 958 q 575 879 575 913 q 551 823 575 846 q 494 800 528 800 m 326 939 q 351 879 351 914 q 327 819 351 844 q 267 794 303 794 q 206 819 231 794 q 182 879 182 844 q 206 939 182 914 q 267 964 231 964 q 326 939 303 964 m 797 26 q 749 12 788 24 q 684 -6 710 0 q 635 -11 658 -11 q 564 15 593 -11 q 526 82 535 40 q 299 -19 428 -19 q 138 44 185 -19 q 92 224 92 107 l 92 615 l 76 690 l 261 690 l 261 253 q 351 114 261 114 q 456 151 413 114 q 499 249 499 189 l 499 615 q 494 633 499 617 q 486 669 490 650 q 482 690 482 688 l 668 690 l 668 183 q 703 111 668 111 q 768 128 706 111 l 797 26 z "},"ý":{"ha":633,"x_min":-3,"x_max":636,"o":"m 615 1049 l 406 819 l 263 819 l 414 1049 l 615 1049 m 636 690 l 390 -4 q 89 -307 285 -307 l 38 -307 l 38 -189 q 74 -193 54 -193 q 141 -176 111 -193 q 191 -125 171 -158 q 223 -65 211 -92 q 247 1 235 -37 l -3 690 l 176 690 q 236 522 186 661 q 311 307 286 382 q 323 251 317 289 q 331 203 329 213 q 350 307 346 292 l 483 690 l 636 690 z "},"þ":{"ha":775,"x_min":79,"x_max":736,"o":"m 261 1067 l 261 635 q 454 706 344 706 q 609 650 543 706 q 706 515 675 594 q 736 349 736 435 q 648 90 736 196 q 410 -17 560 -17 q 261 25 324 -17 l 261 -301 l 94 -301 l 94 993 q 86 1033 93 999 l 79 1067 l 261 1067 m 261 511 l 261 285 q 296 151 261 206 q 406 97 331 97 q 497 141 461 97 q 543 235 532 185 q 554 340 554 286 q 540 444 554 393 q 489 536 526 494 q 397 578 451 578 q 261 511 321 578 z "},"ÿ":{"ha":633,"x_min":-3,"x_max":636,"o":"m 451 803 q 396 826 419 803 q 372 882 372 850 q 396 938 372 914 q 451 961 419 961 q 508 938 485 961 q 532 882 532 915 q 508 826 532 849 q 451 803 485 803 m 283 942 q 308 882 308 917 q 284 822 308 847 q 224 797 260 797 q 163 822 188 797 q 139 882 139 847 q 163 942 139 917 q 224 967 188 967 q 283 942 260 967 m 636 690 l 390 -4 q 89 -307 285 -307 l 38 -307 l 38 -189 q 74 -193 54 -193 q 141 -176 111 -193 q 191 -125 171 -158 q 223 -65 211 -92 q 247 1 235 -37 l -3 690 l 176 690 q 236 522 186 661 q 311 307 286 382 q 323 251 317 289 q 331 203 329 213 q 350 307 346 292 l 483 690 l 636 690 z "},"ı":{"ha":349,"x_min":75,"x_max":257,"o":"m 257 0 l 90 0 l 90 615 q 87 633 90 617 q 79 669 83 650 q 75 690 75 689 l 257 690 l 257 0 z "},"Ł":{"ha":683,"x_min":1,"x_max":683,"o":"m 683 0 l 92 0 l 92 340 l 1 299 l 1 433 l 92 475 l 92 933 q 82 978 90 939 l 74 1017 l 285 1017 l 285 564 l 558 692 l 558 556 l 285 429 l 285 138 l 683 138 l 683 0 z "},"ł":{"ha":349,"x_min":4,"x_max":346,"o":"m 257 0 l 88 0 l 88 381 l 4 342 l 4 476 l 88 515 l 88 993 q 79 1033 86 999 l 72 1067 l 257 1067 l 257 594 l 346 636 l 346 500 l 257 458 l 257 0 z "},"Œ":{"ha":1465,"x_min":33,"x_max":1431,"o":"m 1431 0 l 813 0 l 813 75 q 518 -15 689 -15 q 163 132 292 -15 q 33 508 33 279 q 163 885 33 739 q 518 1032 292 1032 q 813 944 692 1032 l 813 1017 l 1431 1017 l 1431 879 l 1003 879 l 1003 592 l 1331 592 l 1331 454 l 1003 454 l 1003 138 l 1431 138 l 1431 0 m 518 122 q 651 156 594 122 q 739 248 708 190 q 784 371 769 306 q 799 508 799 436 q 785 646 799 582 q 741 768 771 710 q 654 860 711 826 q 518 894 597 894 q 385 860 442 894 q 297 768 328 826 q 252 645 267 710 q 238 508 238 581 q 251 370 238 435 q 296 248 265 306 q 383 156 326 190 q 518 122 440 122 z "},"œ":{"ha":1178,"x_min":38,"x_max":1138,"o":"m 1050 174 l 1121 58 q 1008 3 1078 22 q 874 -15 938 -15 q 615 86 710 -15 q 374 -15 525 -15 q 129 88 221 -15 q 38 346 38 192 q 130 603 38 499 q 374 708 222 708 q 617 606 525 708 q 850 710 706 710 q 1062 628 986 710 q 1138 408 1138 546 q 1067 325 1138 325 l 703 325 q 749 168 703 236 q 882 100 796 100 q 972 121 925 100 q 1050 174 1018 142 m 374 100 q 526 344 526 100 q 520 428 526 389 q 499 507 514 467 q 452 571 485 547 q 374 594 419 594 q 278 550 315 594 q 231 454 242 506 q 221 344 221 403 q 231 236 221 286 q 278 143 242 186 q 374 100 315 100 m 707 435 l 940 435 q 964 465 964 435 q 935 559 964 522 q 851 596 906 596 q 753 544 796 596 q 707 435 710 493 z "},"Š":{"ha":717,"x_min":6,"x_max":690,"o":"m 690 274 q 586 61 690 139 q 332 -17 482 -17 q 6 57 143 -17 l 71 210 q 314 117 181 117 q 436 151 385 117 q 488 242 488 185 q 441 331 488 293 q 329 397 394 369 q 198 455 264 424 q 85 544 132 486 q 39 682 39 601 q 138 881 39 813 q 404 949 238 949 q 549 927 468 949 q 674 872 629 906 l 578 751 q 386 815 499 815 q 284 790 326 815 q 242 718 242 764 q 288 632 242 668 q 401 569 335 596 q 532 509 467 542 q 644 417 597 476 q 690 274 690 357 m 561 1196 l 428 994 l 292 994 l 154 1196 l 263 1196 l 360 1093 l 456 1196 l 561 1196 z "},"š":{"ha":597,"x_min":44,"x_max":546,"o":"m 501 1022 l 368 821 l 232 821 l 94 1022 l 203 1022 l 300 919 l 396 1022 l 501 1022 m 546 215 q 465 44 546 108 q 275 -19 385 -19 q 44 40 153 -19 l 104 154 q 261 99 199 99 q 335 122 306 99 q 365 188 365 144 q 334 250 365 225 q 258 290 303 275 q 169 326 214 306 q 92 388 124 346 q 61 492 61 429 q 141 652 61 596 q 328 708 221 708 q 532 665 446 708 l 474 549 q 336 596 413 596 q 269 577 297 596 q 242 522 242 558 q 273 465 242 488 q 349 427 304 443 q 439 390 394 411 q 515 326 483 369 q 546 215 546 282 z "},"Ÿ":{"ha":811,"x_min":14,"x_max":797,"o":"m 797 936 l 496 381 l 496 0 l 311 0 l 311 381 l 14 936 l 219 936 l 422 557 l 631 936 l 797 936 m 536 1021 q 481 1044 504 1021 q 457 1100 457 1068 q 481 1156 457 1132 q 536 1179 504 1179 q 593 1156 569 1179 q 617 1100 617 1133 q 593 1044 617 1067 q 536 1021 569 1021 m 369 1156 q 393 1100 393 1133 q 370 1044 393 1067 q 314 1021 347 1021 q 258 1044 281 1021 q 235 1100 235 1067 q 258 1156 235 1133 q 314 1179 281 1179 q 369 1156 347 1179 z "},"Ž":{"ha":793,"x_min":18,"x_max":775,"o":"m 775 138 l 758 0 l 18 0 l 18 114 l 506 800 l 51 800 l 51 936 l 750 936 l 750 835 l 253 138 l 775 138 m 621 1196 l 488 994 l 351 994 l 214 1196 l 322 1196 l 419 1093 l 515 1196 l 621 1196 z "},"ž":{"ha":618,"x_min":24,"x_max":594,"o":"m 536 1022 l 403 821 l 267 821 l 129 1022 l 238 1022 l 335 919 l 431 1022 l 536 1022 m 594 115 l 575 0 l 24 0 l 24 85 l 349 575 l 58 575 l 58 690 l 575 690 l 575 604 l 246 115 l 594 115 z "},"ƒ":{"ha":413,"x_min":-158,"x_max":592,"o":"m 592 981 l 544 883 q 439 918 489 918 q 299 690 338 918 l 499 690 l 464 579 l 282 579 q 182 1 232 247 q 91 -195 157 -121 q -90 -269 25 -269 q -158 -262 -121 -269 l -126 -154 l -114 -154 q -40 -128 -71 -154 q -1 -54 -10 -101 l 113 579 l 8 579 l 8 676 q 144 739 121 679 q 171 819 150 751 q 214 919 192 886 q 444 1032 288 1032 q 592 981 522 1032 z "},"ˆ":{"ha":382,"x_min":-11,"x_max":396,"o":"m 396 817 l 288 817 l 190 919 l 94 817 l -11 817 l 122 1018 l 258 1018 l 396 817 z "},"ˇ":{"ha":382,"x_min":-11,"x_max":396,"o":"m 396 1018 l 263 817 l 126 817 l -11 1018 l 97 1018 l 194 915 l 290 1018 l 396 1018 z "},"˘":{"ha":383,"x_min":-17,"x_max":401,"o":"m 401 1017 q 340 852 388 910 q 192 794 293 794 q 43 855 94 794 q -17 1017 -8 915 l 76 1017 q 115 943 89 967 q 192 919 142 919 q 306 1017 283 919 l 401 1017 z "},"˙":{"ha":396,"x_min":115,"x_max":285,"o":"m 260 928 q 285 868 285 903 q 260 808 285 833 q 200 783 236 783 q 140 808 164 783 q 115 868 115 833 q 140 928 115 903 q 200 953 164 953 q 260 928 236 953 z "},"˚":{"ha":390,"x_min":47,"x_max":346,"o":"m 301 990 q 346 886 346 947 q 301 781 346 825 q 196 738 257 738 q 91 781 135 738 q 47 886 47 825 q 91 991 47 947 q 196 1035 135 1035 q 301 990 257 1035 m 154 925 q 139 885 139 908 q 155 845 139 861 q 194 829 171 829 q 235 845 218 829 q 251 885 251 861 q 235 925 251 908 q 194 942 218 942 q 154 925 171 942 z "},"˛":{"ha":388,"x_min":39,"x_max":381,"o":"m 381 -214 q 183 -293 282 -293 q 79 -260 119 -293 q 39 -164 39 -226 q 88 -64 39 -111 q 197 10 138 -17 q 310 46 257 38 l 358 19 q 319 -1 353 17 q 268 -31 286 -19 q 225 -61 250 -42 q 188 -101 200 -81 q 175 -142 175 -121 q 233 -194 175 -194 q 349 -144 268 -194 l 381 -214 z "},"˜":{"ha":490,"x_min":11,"x_max":485,"o":"m 485 947 q 445 831 485 878 q 338 785 406 785 q 238 813 296 785 q 157 840 181 840 q 119 829 136 840 q 101 799 101 818 l 11 799 q 51 915 11 868 q 158 961 90 961 q 258 933 200 961 q 339 906 315 906 q 376 917 358 906 q 396 947 394 928 l 485 947 z "},"˝":{"ha":563,"x_min":14,"x_max":515,"o":"m 515 1017 l 361 819 l 232 819 l 328 1017 l 515 1017 m 297 1017 l 143 819 l 14 819 l 110 1017 l 297 1017 z "},"π":{"ha":929,"x_min":21,"x_max":908,"o":"m 810 136 l 854 43 q 704 -14 797 -14 q 562 60 608 -14 q 515 236 515 133 q 589 565 515 465 l 407 565 l 407 528 q 406 442 407 472 q 403 358 406 411 q 394 272 400 306 q 376 194 388 239 q 347 119 365 150 q 303 55 328 88 q 242 -1 278 22 q 163 -42 207 -25 l 111 35 q 202 128 168 71 q 236 251 236 186 l 236 515 q 246 565 236 517 l 229 565 q 154 532 186 565 q 114 453 122 499 l 21 478 q 95 635 31 579 q 263 690 160 690 l 718 690 q 792 697 765 690 q 861 722 818 703 l 908 642 q 838 588 881 603 q 731 565 794 572 q 676 238 676 376 q 695 158 676 190 q 757 125 714 125 q 810 136 783 125 z "},"–":{"ha":697,"x_min":18,"x_max":679,"o":"m 679 293 l 18 293 l 18 424 l 679 424 l 679 293 z "},"—":{"ha":1183,"x_min":18,"x_max":1165,"o":"m 1165 293 l 18 293 l 18 424 l 1165 424 l 1165 293 z "},"‘":{"ha":397,"x_min":94,"x_max":303,"o":"m 303 744 q 275 676 303 704 q 207 647 247 647 q 125 685 156 647 q 94 776 94 724 q 246 1026 94 917 q 300 969 283 989 q 258 919 279 950 q 236 868 236 888 q 253 839 236 854 q 286 801 269 824 q 303 744 303 778 z "},"’":{"ha":397,"x_min":108,"x_max":317,"o":"m 317 906 q 165 656 317 767 q 111 713 128 693 q 175 814 175 776 q 158 843 175 828 q 125 881 142 858 q 108 938 108 904 q 135 1007 108 979 q 204 1035 163 1035 q 286 997 256 1035 q 317 906 317 958 z "},"‚":{"ha":383,"x_min":97,"x_max":306,"o":"m 306 64 q 154 -186 306 -76 q 100 -129 117 -149 q 142 -78 121 -110 q 164 -28 164 -47 q 147 1 164 -14 q 114 40 131 17 q 97 96 97 63 q 125 165 97 136 q 193 193 153 193 q 275 155 244 193 q 306 64 306 117 z "},"“":{"ha":676,"x_min":92,"x_max":581,"o":"m 300 744 q 272 676 300 704 q 204 647 244 647 q 122 685 153 647 q 92 776 92 724 q 243 1026 92 917 q 297 969 281 989 q 255 919 276 950 q 233 868 233 888 q 250 839 233 854 q 283 801 267 824 q 300 744 300 778 m 581 744 q 553 676 581 704 q 485 647 525 647 q 403 685 433 647 q 372 776 372 724 q 524 1026 372 917 q 578 969 561 989 q 535 919 557 950 q 514 868 514 888 q 531 839 514 854 q 564 801 547 824 q 581 744 581 778 z "},"”":{"ha":676,"x_min":108,"x_max":597,"o":"m 317 906 q 165 656 317 767 q 111 713 128 693 q 175 814 175 776 q 158 843 175 828 q 125 881 142 858 q 108 938 108 904 q 135 1007 108 979 q 204 1035 163 1035 q 286 997 256 1035 q 317 906 317 958 m 597 906 q 446 656 597 767 q 392 713 408 693 q 456 814 456 776 q 439 843 456 828 q 406 881 422 858 q 389 938 389 904 q 416 1007 389 979 q 485 1035 443 1035 q 567 997 536 1035 q 597 906 597 958 z "},"„":{"ha":663,"x_min":88,"x_max":576,"o":"m 296 64 q 144 -186 296 -76 q 90 -129 107 -149 q 133 -78 111 -110 q 154 -28 154 -47 q 138 1 154 -14 q 104 40 121 17 q 88 96 88 63 q 115 165 88 136 q 183 193 143 193 q 265 155 235 193 q 296 64 296 117 m 576 64 q 425 -186 576 -76 q 371 -129 388 -149 q 413 -78 392 -110 q 435 -28 435 -47 q 418 1 435 -14 q 385 40 401 17 q 368 96 368 63 q 396 165 368 136 q 464 193 424 193 q 546 155 515 193 q 576 64 576 117 z "},"†":{"ha":726,"x_min":71,"x_max":669,"o":"m 669 668 l 581 597 l 415 628 l 451 429 l 404 -192 l 340 -192 l 289 429 l 324 628 l 163 597 l 71 674 l 163 749 l 324 714 l 288 914 l 367 1028 l 453 914 l 415 714 l 581 749 l 669 668 z "},"‡":{"ha":726,"x_min":64,"x_max":663,"o":"m 663 156 l 569 81 l 414 115 l 446 -85 l 368 -193 l 281 -85 l 317 115 l 156 81 l 64 163 l 156 229 l 318 201 l 282 429 l 317 628 l 156 597 l 64 674 l 156 749 l 317 714 l 281 914 l 360 1028 l 446 914 l 408 714 l 574 749 l 663 668 l 574 597 l 408 628 l 446 429 l 413 201 l 569 229 l 663 156 z "},"•":{"ha":613,"x_min":90,"x_max":524,"o":"m 460 649 q 524 496 524 586 q 461 342 524 406 q 308 279 399 279 q 154 342 218 279 q 90 496 90 406 q 153 649 90 586 q 307 713 217 713 q 460 649 397 713 z "},"…":{"ha":1146,"x_min":125,"x_max":1026,"o":"m 307 167 q 339 90 339 135 q 308 15 339 46 q 232 -17 276 -17 q 156 15 188 -17 q 125 90 125 46 q 156 167 125 135 q 232 199 188 199 q 307 167 276 199 m 650 167 q 682 90 682 135 q 651 15 682 46 q 575 -17 619 -17 q 499 15 531 -17 q 468 90 468 46 q 499 167 468 135 q 575 199 531 199 q 650 167 619 199 m 994 167 q 1026 90 1026 135 q 995 15 1026 46 q 919 -17 964 -17 q 844 15 875 -17 q 813 90 813 46 q 844 167 813 135 q 919 199 875 199 q 994 167 964 199 z "},"‰":{"ha":1594,"x_min":46,"x_max":1626,"o":"m 1564 483 q 1626 279 1626 404 q 1565 74 1626 154 q 1381 -6 1503 -6 q 1197 74 1258 -6 q 1135 279 1135 154 q 1197 483 1135 404 q 1381 563 1258 563 q 1564 483 1503 563 m 1028 483 q 1090 279 1090 404 q 1028 74 1090 154 q 844 -6 967 -6 q 660 74 722 -6 q 599 279 599 154 q 660 483 599 404 q 844 563 722 563 q 1028 483 967 563 m 849 971 l 367 -18 l 274 -18 l 722 896 l 486 896 q 538 707 538 819 q 475 502 538 582 q 292 422 413 422 q 108 502 169 422 q 46 707 46 582 q 108 911 46 832 q 292 990 169 990 q 394 971 350 990 l 849 971 m 1475 279 q 1381 453 1475 453 q 1286 279 1286 453 q 1381 104 1286 104 q 1475 279 1475 104 m 939 279 q 844 453 939 453 q 750 279 750 453 q 844 104 750 104 q 939 279 939 104 m 386 707 q 292 881 386 881 q 197 707 197 881 q 292 532 197 532 q 386 707 386 532 z "},"‹":{"ha":414,"x_min":46,"x_max":368,"o":"m 368 240 l 263 225 l 46 461 l 257 700 l 364 681 l 199 461 l 368 240 z "},"›":{"ha":457,"x_min":68,"x_max":389,"o":"m 389 461 l 172 225 l 68 240 l 238 461 l 71 681 l 178 700 l 389 461 z "},"⁄":{"ha":183,"x_min":-156,"x_max":349,"o":"m 349 1017 l -26 0 l -156 0 l 218 1017 l 349 1017 z "},"€":{"ha":713,"x_min":14,"x_max":671,"o":"m 628 147 l 671 28 q 479 -15 585 -15 q 249 57 336 -15 q 135 253 161 129 l 14 253 l 29 318 l 125 318 q 124 360 124 332 q 125 404 124 389 l 49 404 l 61 469 l 136 469 q 256 657 167 588 q 481 726 346 726 q 657 694 578 726 l 628 565 q 485 610 567 610 q 314 469 344 610 l 607 469 l 592 404 l 304 404 l 304 364 q 306 318 304 333 l 574 318 l 558 253 l 318 253 q 488 103 358 103 q 628 147 567 103 z "},"™":{"ha":789,"x_min":67,"x_max":713,"o":"m 713 690 l 631 690 l 631 868 l 560 690 l 510 690 q 438 876 472 783 l 438 690 l 365 690 l 365 1018 l 468 1018 l 540 828 l 611 1017 l 713 1017 l 713 690 m 349 953 l 249 953 l 249 690 l 165 690 l 165 953 l 67 953 l 67 1018 l 349 1018 l 349 953 z "},"Ω":{"ha":1085,"x_min":42,"x_max":1043,"o":"m 1043 0 l 633 0 l 633 106 q 775 248 731 142 q 819 485 819 354 q 806 626 819 558 q 762 756 792 693 q 676 856 732 818 q 543 894 619 894 q 410 856 467 894 q 323 756 353 818 q 279 625 293 693 q 265 485 265 557 q 310 248 265 354 q 451 106 354 142 l 451 0 l 42 0 l 42 138 l 135 138 l 235 129 q 110 284 158 175 q 61 510 61 393 q 189 886 61 740 q 543 1032 317 1032 q 897 886 769 1032 q 1024 510 1024 740 q 975 284 1024 393 q 850 129 926 175 l 950 138 l 1043 138 l 1043 0 z "},"∂":{"ha":771,"x_min":44,"x_max":726,"o":"m 517 535 q 504 642 515 588 q 469 754 493 697 q 400 847 446 811 q 294 883 354 883 q 210 869 250 883 q 153 842 171 856 l 136 828 q 67 932 68 932 q 76 943 69 936 q 108 967 83 950 q 160 997 132 983 q 235 1021 188 1010 q 333 1032 282 1032 q 628 880 529 1032 q 726 464 726 728 q 699 262 726 350 q 629 123 671 174 q 534 40 588 72 q 435 -4 481 7 q 347 -15 390 -15 q 252 -1 300 -15 q 155 44 204 13 q 75 138 106 75 q 44 286 44 200 q 67 408 44 354 q 125 495 90 463 q 203 549 160 528 q 283 579 246 571 q 354 588 321 588 q 420 580 389 588 q 466 565 451 572 q 499 547 481 558 l 517 535 m 514 407 q 389 451 469 451 q 308 429 342 451 q 258 374 274 407 q 236 315 243 340 q 229 272 229 289 q 232 238 229 254 q 244 190 235 221 q 282 141 254 160 q 351 122 310 122 q 435 160 400 122 q 485 251 469 197 q 508 344 501 304 q 514 407 514 383 z "},"∆":{"ha":876,"x_min":3,"x_max":874,"o":"m 874 0 l 3 0 l 3 93 l 363 1017 l 514 1017 l 874 93 l 874 0 m 181 138 l 650 138 q 450 676 525 463 q 428 758 440 703 q 417 814 417 813 q 409 781 415 808 q 395 724 403 754 q 381 675 388 694 q 181 138 269 364 z "},"∏":{"ha":1157,"x_min":25,"x_max":1132,"o":"m 983 -318 l 785 -318 l 785 879 l 369 879 l 369 -318 l 171 -318 l 171 879 l 25 879 l 25 1017 l 1132 1017 l 1132 879 l 983 879 l 983 -318 z "},"∑":{"ha":1008,"x_min":56,"x_max":953,"o":"m 953 -318 l 56 -318 l 56 -137 l 453 385 l 56 879 l 56 1017 l 939 1017 l 939 879 l 282 879 q 354 806 347 814 l 658 431 l 289 -57 q 221 -128 279 -69 l 953 -128 l 953 -318 z "},"−":{"ha":883,"x_min":97,"x_max":786,"o":"m 786 285 l 97 285 l 97 407 l 786 407 l 786 285 z "},"√":{"ha":840,"x_min":-108,"x_max":926,"o":"m 426 -319 l 265 -319 l 60 286 l -71 244 l -108 357 l 169 450 l 356 -108 l 790 1344 l 926 1344 l 426 -319 z "},"∞":{"ha":1128,"x_min":97,"x_max":1031,"o":"m 564 251 q 449 143 506 183 q 326 103 393 103 q 159 171 221 103 q 97 346 97 239 q 159 521 97 453 q 326 589 221 589 q 449 549 393 589 q 564 440 506 508 q 678 549 622 508 q 801 589 735 589 q 969 521 907 589 q 1031 346 1031 453 q 969 171 1031 239 q 801 103 907 103 q 678 143 735 103 q 564 251 622 183 m 647 346 q 803 256 732 256 q 869 280 846 256 q 893 346 893 304 q 869 412 893 388 q 803 436 846 436 q 647 346 732 436 m 481 346 q 325 436 396 436 q 258 412 282 436 q 235 346 235 388 q 258 280 235 304 q 325 256 282 256 q 481 346 396 256 z "},"∫":{"ha":356,"x_min":-32,"x_max":392,"o":"m -32 -315 l -32 -204 q 71 -159 35 -204 q 107 -47 107 -114 l 107 729 q 170 957 107 883 q 392 1031 233 1031 l 392 919 q 276 763 276 919 l 276 -14 q 203 -242 276 -168 q -32 -315 131 -315 z "},"≈":{"ha":913,"x_min":103,"x_max":810,"o":"m 713 579 l 810 517 q 726 417 779 458 q 613 375 672 375 q 444 424 544 375 q 313 472 344 472 q 200 390 254 472 l 103 453 q 187 553 133 511 q 300 594 240 594 q 468 546 368 594 q 600 497 568 497 q 713 579 658 497 m 713 314 l 810 251 q 726 151 779 193 q 613 110 672 110 q 444 158 544 110 q 313 207 344 207 q 200 125 254 207 l 103 188 q 187 288 133 246 q 300 329 240 329 q 468 281 368 329 q 600 232 568 232 q 713 314 658 232 z "},"≠":{"ha":0,"x_min":93,"x_max":785,"o":"m 785 151 l 408 151 l 338 0 l 206 0 l 276 151 l 93 151 l 93 274 l 333 274 l 400 419 l 93 419 l 93 542 l 457 542 l 526 690 l 663 690 l 593 542 l 785 542 l 785 419 l 535 419 l 467 274 l 785 274 l 785 151 z "},"≤":{"ha":875,"x_min":92,"x_max":785,"o":"m 783 147 l 92 393 l 92 465 l 783 710 l 783 585 l 425 458 q 278 429 365 436 q 422 403 351 426 l 783 275 l 783 147 m 785 1 l 96 1 l 96 124 l 785 124 l 785 1 z "},"≥":{"ha":875,"x_min":92,"x_max":785,"o":"m 785 393 l 92 147 l 92 275 l 453 403 q 599 429 525 428 q 450 458 513 436 l 92 585 l 92 710 l 785 465 l 785 393 m 782 1 l 93 1 l 93 124 l 782 124 l 782 1 z "},"◊":{"ha":700,"x_min":35,"x_max":665,"o":"m 379 -19 l 321 -19 l 35 503 l 321 1026 l 379 1026 l 665 503 l 379 -19 m 353 140 l 542 503 l 353 867 l 347 867 l 157 503 l 347 140 l 353 140 z "},"ﬁ":{"ha":765,"x_min":4,"x_max":703,"o":"m 703 875 l 546 833 q 505 927 539 890 q 435 964 471 964 q 319 895 349 964 q 286 690 289 826 l 699 690 l 699 0 l 532 0 l 532 579 l 286 579 l 286 0 l 118 0 l 118 579 l 4 579 l 4 675 q 55 683 33 675 q 89 698 76 690 q 112 726 101 706 q 125 756 122 746 q 134 792 128 765 q 142 828 140 819 q 242 1013 172 949 q 436 1076 311 1076 q 703 875 626 1076 z "},"ﬂ":{"ha":786,"x_min":4,"x_max":700,"o":"m 700 0 l 531 0 l 531 856 q 503 931 531 899 q 425 964 475 964 q 285 699 285 964 l 285 690 l 454 690 l 422 579 l 285 579 l 285 0 l 118 0 l 118 579 l 4 579 l 4 675 q 96 710 69 675 q 142 828 122 746 q 233 1013 171 950 q 428 1075 296 1075 q 565 1035 488 1075 l 700 1082 l 700 0 z "}," ":{"ha":319,"x_min":0,"x_max":0,"o":"z "},"#":{"ha":889,"x_min":83,"x_max":808,"o":"m 808 590 l 650 590 l 625 413 l 772 413 l 772 289 l 608 289 l 569 0 l 446 0 l 485 289 l 354 289 l 315 0 l 192 0 l 231 289 l 83 289 l 83 413 l 247 413 l 272 590 l 119 590 l 119 714 l 289 714 l 329 1017 l 453 1017 l 413 714 l 543 714 l 583 1017 l 707 1017 l 667 714 l 808 714 l 808 590 m 526 590 l 396 590 l 371 413 l 501 413 l 526 590 z "},"!":{"ha":457,"x_min":132,"x_max":346,"o":"m 344 958 l 304 304 l 179 304 q 139 965 139 963 q 192 1007 139 1007 l 290 1007 q 344 958 344 1007 m 314 163 q 346 86 346 131 q 315 10 346 42 q 239 -21 283 -21 q 163 10 194 -21 q 132 86 132 42 q 163 163 132 131 q 239 194 194 194 q 314 163 283 194 z "},"\"":{"ha":510,"x_min":88,"x_max":422,"o":"m 422 776 l 372 624 l 342 624 l 292 776 l 292 1017 l 422 1017 l 422 776 m 218 776 l 168 624 l 139 624 q 125 666 138 628 q 100 740 113 704 l 88 776 l 88 1017 l 218 1017 l 218 776 z "}}}
